<svg width="16" height="16" viewBox="0 0 16 16" fill="none" xmlns="http://www.w3.org/2000/svg">
<path d="M1.4332 5.29656L5.45128 8.64493C5.49899 8.68547 5.53563 8.73744 5.5578 8.79598C5.57997 8.85453 5.58693 8.91774 5.57804 8.97971L4.78521 14.1496C4.77372 14.2282 4.78814 14.3085 4.82631 14.3782C4.86448 14.4478 4.92431 14.5032 4.99675 14.5359C5.06919 14.5685 5.1503 14.5767 5.22779 14.5591C5.30528 14.5415 5.37495 14.4992 5.42624 14.4385L8.7746 10.4205C8.81514 10.3728 8.86711 10.3361 8.92566 10.3139C8.98421 10.2918 9.04742 10.2848 9.10938 10.2937L14.2793 11.0865C14.3579 11.098 14.4381 11.0836 14.5078 11.0454C14.5775 11.0073 14.6329 10.9474 14.6655 10.875C14.6982 10.8025 14.7063 10.7214 14.6888 10.644C14.6712 10.5665 14.6289 10.4968 14.5682 10.4455L10.5501 7.09713C10.5024 7.0566 10.4658 7.00462 10.4436 6.94608C10.4214 6.88753 10.4145 6.82432 10.4234 6.76236L11.2162 1.59245C11.2277 1.51383 11.2133 1.4336 11.1751 1.36391C11.1369 1.29422 11.0771 1.23886 11.0047 1.20621C10.9322 1.17356 10.8511 1.1654 10.7736 1.18296C10.6961 1.20052 10.6265 1.24284 10.5752 1.30353L7.22681 5.32161C7.18627 5.36931 7.1343 5.40596 7.07576 5.42812C7.01721 5.45029 6.954 5.45725 6.89203 5.44836L1.72212 4.65554C1.6435 4.64404 1.56328 4.65847 1.49359 4.69664C1.4239 4.7348 1.36854 4.79464 1.33589 4.86708C1.30324 4.93952 1.29508 5.02062 1.31263 5.09811C1.33019 5.17561 1.37252 5.24527 1.4332 5.29656Z" stroke="#17478B" stroke-width="1.46484" stroke-linecap="round" stroke-linejoin="round"/>
</svg>
