<svg width="168" height="56" viewBox="0 0 168 56" fill="none" xmlns="http://www.w3.org/2000/svg">
<rect x="0.65" y="0.65" width="166.7" height="54.7" rx="8.45" fill="black"/>
<rect x="0.65" y="0.65" width="166.7" height="54.7" rx="8.45" stroke="#A6A6A6" stroke-width="1.3"/>
<path d="M114.136 26.8815V30.0889H112.126V32.1923H114.136V39.3393C114.136 41.7797 115.24 42.7559 118.018 42.7559C118.506 42.7559 118.971 42.6978 119.377 42.6281V40.5479C119.029 40.5828 118.808 40.606 118.425 40.606C117.181 40.606 116.635 40.025 116.635 38.7001V32.1923H119.377V30.0889H116.635V26.8815H114.136Z" fill="white"/>
<path d="M126.453 42.9302C130.148 42.9302 132.414 40.4549 132.414 36.3527C132.414 32.2737 130.137 29.7868 126.453 29.7868C122.757 29.7868 120.48 32.2737 120.48 36.3527C120.48 40.4549 122.746 42.9302 126.453 42.9302ZM126.453 40.7106C124.28 40.7106 123.059 39.1185 123.059 36.3527C123.059 33.6101 124.28 32.0064 126.453 32.0064C128.614 32.0064 129.846 33.6101 129.846 36.3527C129.846 39.1069 128.614 40.7106 126.453 40.7106Z" fill="white"/>
<path d="M134.353 42.6862H136.852V35.2138C136.852 33.4358 138.188 32.2388 140.083 32.2388C140.524 32.2388 141.268 32.3202 141.477 32.3899V29.9262C141.21 29.8565 140.733 29.8216 140.361 29.8216C138.711 29.8216 137.305 30.7281 136.945 31.9715H136.759V30.0308H134.353V42.6862Z" fill="white"/>
<path d="M147.681 31.9134C149.529 31.9134 150.737 33.2034 150.795 35.1906H144.404C144.543 33.215 145.833 31.9134 147.681 31.9134ZM150.784 39.2696C150.319 40.2574 149.285 40.8036 147.774 40.8036C145.775 40.8036 144.485 39.3974 144.404 37.1778V37.0383H153.34V36.1668C153.34 32.1923 151.214 29.7868 147.692 29.7868C144.125 29.7868 141.859 32.355 141.859 36.3992C141.859 40.4433 144.078 42.9302 147.704 42.9302C150.598 42.9302 152.62 41.5357 153.189 39.2696H150.784Z" fill="white"/>
<path d="M97.7513 38.0128C97.944 41.1203 100.534 43.1078 104.388 43.1078C108.507 43.1078 111.085 41.024 111.085 37.6996C111.085 35.0858 109.616 33.6404 106.05 32.8093L104.135 32.3396C101.871 31.8096 100.955 31.099 100.955 29.8583C100.955 28.2925 102.377 27.2687 104.509 27.2687C106.532 27.2687 107.929 28.2684 108.182 29.8704H110.808C110.651 26.9435 108.074 24.8838 104.545 24.8838C100.751 24.8838 98.2211 26.9435 98.2211 30.039C98.2211 32.5925 99.6544 34.1102 102.798 34.8449L105.039 35.387C107.339 35.929 108.351 36.7239 108.351 38.0489C108.351 39.5906 106.761 40.7108 104.593 40.7108C102.268 40.7108 100.654 39.6629 100.425 38.0128H97.7513Z" fill="white"/>
<path d="M71.8691 29.8216C70.1491 29.8216 68.6616 30.6816 67.8946 32.1226H67.7087V30.0308H65.3031V46.893H67.8017V40.7687H67.9992C68.6616 42.1051 70.091 42.8954 71.8923 42.8954C75.0881 42.8954 77.1218 40.3736 77.1218 36.3527C77.1218 32.3318 75.0881 29.8216 71.8691 29.8216ZM71.1602 40.6525C69.0684 40.6525 67.7552 39.0023 67.7552 36.3643C67.7552 33.7147 69.0684 32.0645 71.1718 32.0645C73.2868 32.0645 74.5535 33.6798 74.5535 36.3527C74.5535 39.0372 73.2868 40.6525 71.1602 40.6525Z" fill="white"/>
<path d="M85.8646 29.8216C84.1447 29.8216 82.6572 30.6816 81.8902 32.1226H81.7042V30.0308H79.2987V46.893H81.7972V40.7687H81.9948C82.6572 42.1051 84.0865 42.8954 85.8878 42.8954C89.0836 42.8954 91.1173 40.3736 91.1173 36.3527C91.1173 32.3318 89.0836 29.8216 85.8646 29.8216ZM85.1557 40.6525C83.0639 40.6525 81.7507 39.0023 81.7507 36.3643C81.7507 33.7147 83.0639 32.0645 85.1673 32.0645C87.2823 32.0645 88.549 33.6798 88.549 36.3527C88.549 39.0372 87.2823 40.6525 85.1557 40.6525Z" fill="white"/>
<path d="M60.8203 42.6862H63.687L57.4116 25.3054H54.5088L48.2334 42.6862H51.0037L52.6057 38.073H59.2304L60.8203 42.6862ZM55.8217 28.4611H56.0265L58.5439 35.8085H53.2923L55.8217 28.4611Z" fill="white"/>
<path d="M49.9111 12.1953V20.5799H52.9384C55.437 20.5799 56.8838 19.0401 56.8838 16.3614C56.8838 13.7234 55.4253 12.1953 52.9384 12.1953H49.9111ZM51.2127 13.3806H52.7932C54.5305 13.3806 55.559 14.4846 55.559 16.3789C55.559 18.3021 54.5479 19.3945 52.7932 19.3945H51.2127V13.3806Z" fill="white"/>
<path d="M61.3149 20.7019C63.1627 20.7019 64.2957 19.4643 64.2957 17.4131C64.2957 15.3736 63.1569 14.1302 61.3149 14.1302C59.4672 14.1302 58.3283 15.3736 58.3283 17.4131C58.3283 19.4643 59.4613 20.7019 61.3149 20.7019ZM61.3149 19.5921C60.2283 19.5921 59.6182 18.796 59.6182 17.4131C59.6182 16.0418 60.2283 15.24 61.3149 15.24C62.3957 15.24 63.0116 16.0418 63.0116 17.4131C63.0116 18.7902 62.3957 19.5921 61.3149 19.5921Z" fill="white"/>
<path d="M73.9447 14.2522H72.6954L71.5682 19.0808H71.4694L70.1679 14.2522H68.9709L67.6693 19.0808H67.5764L66.4433 14.2522H65.1766L66.9198 20.5799H68.2039L69.5055 15.9198H69.6042L70.9116 20.5799H72.2074L73.9447 14.2522Z" fill="white"/>
<path d="M75.3834 20.5799H76.6327V16.8786C76.6327 15.8908 77.2195 15.2749 78.1434 15.2749C79.0673 15.2749 79.5089 15.7804 79.5089 16.7972V20.5799H80.7582V16.4834C80.7582 14.9785 79.9796 14.1302 78.5676 14.1302C77.6147 14.1302 76.9871 14.5543 76.6792 15.2574H76.5862V14.2522H75.3834V20.5799Z" fill="white"/>
<path d="M82.7256 20.5799H83.9749V11.7827H82.7256V20.5799Z" fill="white"/>
<path d="M88.6733 20.7019C90.521 20.7019 91.6541 19.4643 91.6541 17.4131C91.6541 15.3736 90.5152 14.1302 88.6733 14.1302C86.8255 14.1302 85.6867 15.3736 85.6867 17.4131C85.6867 19.4643 86.8197 20.7019 88.6733 20.7019ZM88.6733 19.5921C87.5867 19.5921 86.9766 18.796 86.9766 17.4131C86.9766 16.0418 87.5867 15.24 88.6733 15.24C89.7541 15.24 90.37 16.0418 90.37 17.4131C90.37 18.7902 89.7541 19.5921 88.6733 19.5921Z" fill="white"/>
<path d="M95.3763 19.6328C94.6965 19.6328 94.2026 19.3016 94.2026 18.7321C94.2026 18.1743 94.5977 17.878 95.4693 17.8199L97.0149 17.7211V18.2499C97.0149 19.0343 96.3176 19.6328 95.3763 19.6328ZM95.0568 20.6845C95.8877 20.6845 96.5791 20.3242 96.9568 19.6909H97.0556V20.5799H98.2584V16.2568C98.2584 14.9204 97.3635 14.1302 95.7773 14.1302C94.3421 14.1302 93.3194 14.8274 93.1916 15.914H94.4002C94.5396 15.4666 95.0219 15.2109 95.7192 15.2109C96.5733 15.2109 97.0149 15.5886 97.0149 16.2568V16.803L95.3008 16.9018C93.7959 16.9948 92.9475 17.6514 92.9475 18.7902C92.9475 19.9465 93.8365 20.6845 95.0568 20.6845Z" fill="white"/>
<path d="M102.498 20.6845C103.369 20.6845 104.107 20.2719 104.485 19.5805H104.584V20.5799H105.781V11.7827H104.531V15.2574H104.438C104.096 14.5602 103.364 14.1476 102.498 14.1476C100.9 14.1476 99.8714 15.4143 99.8714 17.4131C99.8714 19.4178 100.888 20.6845 102.498 20.6845ZM102.852 15.269C103.898 15.269 104.555 16.1 104.555 17.4189C104.555 18.7437 103.904 19.563 102.852 19.563C101.795 19.563 101.161 18.7554 101.161 17.4131C101.161 16.0825 101.8 15.269 102.852 15.269Z" fill="white"/>
<path d="M113.882 20.7019C115.73 20.7019 116.863 19.4643 116.863 17.4131C116.863 15.3736 115.724 14.1302 113.882 14.1302C112.034 14.1302 110.895 15.3736 110.895 17.4131C110.895 19.4643 112.028 20.7019 113.882 20.7019ZM113.882 19.5921C112.795 19.5921 112.185 18.796 112.185 17.4131C112.185 16.0418 112.795 15.24 113.882 15.24C114.963 15.24 115.578 16.0418 115.578 17.4131C115.578 18.7902 114.963 19.5921 113.882 19.5921Z" fill="white"/>
<path d="M118.516 20.5799H119.766V16.8786C119.766 15.8908 120.352 15.2749 121.276 15.2749C122.2 15.2749 122.642 15.7804 122.642 16.7972V20.5799H123.891V16.4834C123.891 14.9785 123.112 14.1302 121.7 14.1302C120.748 14.1302 120.12 14.5543 119.812 15.2574H119.719V14.2522H118.516V20.5799Z" fill="white"/>
<path d="M129.645 12.6775V14.2812H128.639V15.333H129.645V18.9064C129.645 20.1267 130.197 20.6147 131.585 20.6147C131.829 20.6147 132.062 20.5857 132.265 20.5508V19.5107C132.091 19.5282 131.98 19.5398 131.789 19.5398C131.167 19.5398 130.894 19.2493 130.894 18.5869V15.333H132.265V14.2812H130.894V12.6775H129.645Z" fill="white"/>
<path d="M133.942 20.5799H135.191V16.8844C135.191 15.9256 135.761 15.2807 136.783 15.2807C137.667 15.2807 138.137 15.792 138.137 16.803V20.5799H139.387V16.4951C139.387 14.9901 138.556 14.136 137.208 14.136C136.255 14.136 135.586 14.5602 135.279 15.269H135.18V11.7827H133.942V20.5799Z" fill="white"/>
<path d="M143.893 15.1935C144.817 15.1935 145.421 15.8385 145.45 16.8321H142.255C142.324 15.8443 142.969 15.1935 143.893 15.1935ZM145.445 18.8716C145.212 19.3655 144.695 19.6386 143.94 19.6386C142.94 19.6386 142.295 18.9355 142.255 17.8257V17.756H146.723V17.3202C146.723 15.333 145.66 14.1302 143.899 14.1302C142.115 14.1302 140.982 15.4143 140.982 17.4364C140.982 19.4584 142.092 20.7019 143.905 20.7019C145.352 20.7019 146.363 20.0046 146.647 18.8716H145.445Z" fill="white"/>
<path d="M34.6762 28.421C34.7065 26.0676 35.9704 23.8408 37.9754 22.6081C36.7105 20.8017 34.5919 19.6563 32.3878 19.5874C30.0368 19.3406 27.7577 20.9941 26.5597 20.9941C25.3385 20.9941 23.494 19.6119 21.5078 19.6527C18.9188 19.7364 16.5053 21.2083 15.2457 23.4717C12.5381 28.1595 14.5577 35.049 17.1514 38.8383C18.449 40.6937 19.9656 42.7664 21.9501 42.6929C23.892 42.6123 24.6172 41.4546 26.9612 41.4546C29.2835 41.4546 29.9639 42.6929 31.9886 42.6461C34.0724 42.6123 35.3852 40.7824 36.6373 38.9094C37.5697 37.5872 38.2872 36.126 38.7631 34.5798C36.3144 33.5441 34.6791 31.0798 34.6762 28.421Z" fill="white"/>
<path d="M30.8519 17.0954C31.988 15.7315 32.5477 13.9784 32.4122 12.2085C30.6764 12.3908 29.0731 13.2204 27.9216 14.5319C26.7956 15.8134 26.2096 17.5356 26.3204 19.2379C28.0568 19.2558 29.7638 18.4487 30.8519 17.0954Z" fill="white"/>
</svg>
