<svg width="151" height="56" viewBox="0 0 151 56" fill="none" xmlns="http://www.w3.org/2000/svg">
<rect x="0.5" width="150" height="56" rx="28" fill="#1B1B1B"/>
<path d="M34.0397 29.2123C34.0525 28.205 34.3153 27.2174 34.8037 26.3413C35.292 25.4653 35.9902 24.7292 36.833 24.2017C36.2976 23.4231 35.5912 22.7824 34.77 22.3304C33.9487 21.8784 33.0353 21.6275 32.1022 21.5978C30.1117 21.3851 28.1821 22.8104 27.1678 22.8104C26.1338 22.8104 24.5722 21.6189 22.8905 21.6542C21.8027 21.6899 20.7427 22.012 19.8135 22.5889C18.8843 23.1658 18.1178 23.9779 17.5886 24.9461C15.2962 28.9869 17.0061 34.9255 19.2021 38.1918C20.3008 39.7912 21.5848 41.5777 23.265 41.5144C24.9091 41.445 25.5231 40.447 27.5077 40.447C29.4739 40.447 30.05 41.5144 31.7643 41.4741C33.5285 41.4449 34.64 39.8676 35.7002 38.253C36.4896 37.1134 37.097 35.8539 37.5 34.5211C36.475 34.0797 35.6004 33.341 34.985 32.3969C34.3697 31.4528 34.0409 30.3453 34.0397 29.2123Z" fill="white"/>
<path d="M30.8014 19.728C31.7633 18.5524 32.2372 17.0413 32.1225 15.5156C30.6528 15.6728 29.2953 16.3879 28.3204 17.5184C27.8437 18.0707 27.4787 18.7132 27.246 19.4093C27.0134 20.1053 26.9178 20.8412 26.9647 21.5748C27.6998 21.5826 28.427 21.4203 29.0916 21.1004C29.7561 20.7805 30.3408 20.3113 30.8014 19.728Z" fill="white"/>
<path d="M45.52 14.5656C46.26 14.5656 46.9067 14.709 47.46 14.9956C48.02 15.2756 48.45 15.6823 48.75 16.2156C49.0567 16.7423 49.21 17.359 49.21 18.0656C49.21 18.7723 49.0567 19.3856 48.75 19.9056C48.45 20.4256 48.02 20.8256 47.46 21.1056C46.9067 21.379 46.26 21.5156 45.52 21.5156H43.25V14.5656H45.52ZM45.52 20.5856C46.3333 20.5856 46.9567 20.3656 47.39 19.9256C47.8233 19.4856 48.04 18.8656 48.04 18.0656C48.04 17.259 47.8233 16.629 47.39 16.1756C46.9567 15.7223 46.3333 15.4956 45.52 15.4956H44.39V20.5856H45.52ZM52.7298 21.6056C52.2098 21.6056 51.7398 21.489 51.3198 21.2556C50.8998 21.0156 50.5698 20.6823 50.3298 20.2556C50.0898 19.8223 49.9698 19.3223 49.9698 18.7556C49.9698 18.1956 50.0932 17.699 50.3398 17.2656C50.5865 16.8323 50.9232 16.499 51.3498 16.2656C51.7765 16.0323 52.2532 15.9156 52.7798 15.9156C53.3065 15.9156 53.7832 16.0323 54.2098 16.2656C54.6365 16.499 54.9732 16.8323 55.2198 17.2656C55.4665 17.699 55.5898 18.1956 55.5898 18.7556C55.5898 19.3156 55.4632 19.8123 55.2098 20.2456C54.9565 20.679 54.6098 21.0156 54.1698 21.2556C53.7365 21.489 53.2565 21.6056 52.7298 21.6056ZM52.7298 20.6156C53.0232 20.6156 53.2965 20.5456 53.5498 20.4056C53.8098 20.2656 54.0198 20.0556 54.1798 19.7756C54.3398 19.4956 54.4198 19.1556 54.4198 18.7556C54.4198 18.3556 54.3432 18.019 54.1898 17.7456C54.0365 17.4656 53.8332 17.2556 53.5798 17.1156C53.3265 16.9756 53.0532 16.9056 52.7598 16.9056C52.4665 16.9056 52.1932 16.9756 51.9398 17.1156C51.6932 17.2556 51.4965 17.4656 51.3498 17.7456C51.2032 18.019 51.1298 18.3556 51.1298 18.7556C51.1298 19.349 51.2798 19.809 51.5798 20.1356C51.8865 20.4556 52.2698 20.6156 52.7298 20.6156ZM64.1168 16.0056L62.4068 21.5156H61.2068L60.0968 17.4456L58.9868 21.5156H57.7868L56.0668 16.0056H57.2268L58.3768 20.4356L59.5468 16.0056H60.7368L61.8568 20.4156L62.9968 16.0056H64.1168ZM67.7488 15.9156C68.1821 15.9156 68.5688 16.0056 68.9088 16.1856C69.2554 16.3656 69.5254 16.6323 69.7188 16.9856C69.9121 17.339 70.0088 17.7656 70.0088 18.2656V21.5156H68.8788V18.4356C68.8788 17.9423 68.7554 17.5656 68.5088 17.3056C68.2621 17.039 67.9254 16.9056 67.4988 16.9056C67.0721 16.9056 66.7321 17.039 66.4788 17.3056C66.2321 17.5656 66.1088 17.9423 66.1088 18.4356V21.5156H64.9688V16.0056H66.1088V16.6356C66.2954 16.409 66.5321 16.2323 66.8188 16.1056C67.1121 15.979 67.4221 15.9156 67.7488 15.9156ZM72.6029 14.1156V21.5156H71.4629V14.1156H72.6029ZM76.4896 21.6056C75.9696 21.6056 75.4996 21.489 75.0796 21.2556C74.6596 21.0156 74.3296 20.6823 74.0896 20.2556C73.8496 19.8223 73.7296 19.3223 73.7296 18.7556C73.7296 18.1956 73.8529 17.699 74.0996 17.2656C74.3463 16.8323 74.6829 16.499 75.1096 16.2656C75.5363 16.0323 76.0129 15.9156 76.5396 15.9156C77.0663 15.9156 77.5429 16.0323 77.9696 16.2656C78.3963 16.499 78.7329 16.8323 78.9796 17.2656C79.2263 17.699 79.3496 18.1956 79.3496 18.7556C79.3496 19.3156 79.2229 19.8123 78.9696 20.2456C78.7163 20.679 78.3696 21.0156 77.9296 21.2556C77.4963 21.489 77.0163 21.6056 76.4896 21.6056ZM76.4896 20.6156C76.7829 20.6156 77.0563 20.5456 77.3096 20.4056C77.5696 20.2656 77.7796 20.0556 77.9396 19.7756C78.0996 19.4956 78.1796 19.1556 78.1796 18.7556C78.1796 18.3556 78.1029 18.019 77.9496 17.7456C77.7963 17.4656 77.5929 17.2556 77.3396 17.1156C77.0863 16.9756 76.8129 16.9056 76.5196 16.9056C76.2263 16.9056 75.9529 16.9756 75.6996 17.1156C75.4529 17.2556 75.2563 17.4656 75.1096 17.7456C74.9629 18.019 74.8896 18.3556 74.8896 18.7556C74.8896 19.349 75.0396 19.809 75.3396 20.1356C75.6463 20.4556 76.0296 20.6156 76.4896 20.6156ZM80.0966 18.7356C80.0966 18.1823 80.2099 17.6923 80.4366 17.2656C80.6699 16.839 80.9832 16.509 81.3766 16.2756C81.7766 16.0356 82.2166 15.9156 82.6966 15.9156C83.1299 15.9156 83.5066 16.0023 83.8266 16.1756C84.1532 16.3423 84.4132 16.5523 84.6066 16.8056V16.0056H85.7566V21.5156H84.6066V20.6956C84.4132 20.9556 84.1499 21.1723 83.8166 21.3456C83.4832 21.519 83.1032 21.6056 82.6766 21.6056C82.2032 21.6056 81.7699 21.4856 81.3766 21.2456C80.9832 20.999 80.6699 20.659 80.4366 20.2256C80.2099 19.7856 80.0966 19.289 80.0966 18.7356ZM84.6066 18.7556C84.6066 18.3756 84.5266 18.0456 84.3666 17.7656C84.2132 17.4856 84.0099 17.2723 83.7566 17.1256C83.5032 16.979 83.2299 16.9056 82.9366 16.9056C82.6432 16.9056 82.3699 16.979 82.1166 17.1256C81.8632 17.2656 81.6566 17.4756 81.4966 17.7556C81.3432 18.029 81.2666 18.3556 81.2666 18.7356C81.2666 19.1156 81.3432 19.449 81.4966 19.7356C81.6566 20.0223 81.8632 20.2423 82.1166 20.3956C82.3766 20.5423 82.6499 20.6156 82.9366 20.6156C83.2299 20.6156 83.5032 20.5423 83.7566 20.3956C84.0099 20.249 84.2132 20.0356 84.3666 19.7556C84.5266 19.469 84.6066 19.1356 84.6066 18.7556ZM86.8739 18.7356C86.8739 18.1823 86.9872 17.6923 87.2139 17.2656C87.4472 16.839 87.7606 16.509 88.1539 16.2756C88.5539 16.0356 88.9972 15.9156 89.4839 15.9156C89.8439 15.9156 90.1972 15.9956 90.5439 16.1556C90.8972 16.309 91.1772 16.5156 91.3839 16.7756V14.1156H92.5339V21.5156H91.3839V20.6856C91.1972 20.9523 90.9372 21.1723 90.6039 21.3456C90.2772 21.519 89.9006 21.6056 89.4739 21.6056C88.9939 21.6056 88.5539 21.4856 88.1539 21.2456C87.7606 20.999 87.4472 20.659 87.2139 20.2256C86.9872 19.7856 86.8739 19.289 86.8739 18.7356ZM91.3839 18.7556C91.3839 18.3756 91.3039 18.0456 91.1439 17.7656C90.9906 17.4856 90.7872 17.2723 90.5339 17.1256C90.2806 16.979 90.0072 16.9056 89.7139 16.9056C89.4206 16.9056 89.1472 16.979 88.8939 17.1256C88.6406 17.2656 88.4339 17.4756 88.2739 17.7556C88.1206 18.029 88.0439 18.3556 88.0439 18.7356C88.0439 19.1156 88.1206 19.449 88.2739 19.7356C88.4339 20.0223 88.6406 20.2423 88.8939 20.3956C89.1539 20.5423 89.4272 20.6156 89.7139 20.6156C90.0072 20.6156 90.2806 20.5423 90.5339 20.3956C90.7872 20.249 90.9906 20.0356 91.1439 19.7556C91.3039 19.469 91.3839 19.1356 91.3839 18.7556ZM99.0189 21.6056C98.4989 21.6056 98.0289 21.489 97.6089 21.2556C97.1889 21.0156 96.8589 20.6823 96.6189 20.2556C96.3789 19.8223 96.2589 19.3223 96.2589 18.7556C96.2589 18.1956 96.3822 17.699 96.6289 17.2656C96.8756 16.8323 97.2122 16.499 97.6389 16.2656C98.0656 16.0323 98.5422 15.9156 99.0689 15.9156C99.5956 15.9156 100.072 16.0323 100.499 16.2656C100.926 16.499 101.262 16.8323 101.509 17.2656C101.756 17.699 101.879 18.1956 101.879 18.7556C101.879 19.3156 101.752 19.8123 101.499 20.2456C101.246 20.679 100.899 21.0156 100.459 21.2556C100.026 21.489 99.5456 21.6056 99.0189 21.6056ZM99.0189 20.6156C99.3122 20.6156 99.5856 20.5456 99.8389 20.4056C100.099 20.2656 100.309 20.0556 100.469 19.7756C100.629 19.4956 100.709 19.1556 100.709 18.7556C100.709 18.3556 100.632 18.019 100.479 17.7456C100.326 17.4656 100.122 17.2556 99.8689 17.1156C99.6156 16.9756 99.3422 16.9056 99.0489 16.9056C98.7556 16.9056 98.4822 16.9756 98.2289 17.1156C97.9822 17.2556 97.7856 17.4656 97.6389 17.7456C97.4922 18.019 97.4189 18.3556 97.4189 18.7556C97.4189 19.349 97.5689 19.809 97.8689 20.1356C98.1756 20.4556 98.5589 20.6156 99.0189 20.6156ZM105.786 15.9156C106.219 15.9156 106.606 16.0056 106.946 16.1856C107.293 16.3656 107.563 16.6323 107.756 16.9856C107.949 17.339 108.046 17.7656 108.046 18.2656V21.5156H106.916V18.4356C106.916 17.9423 106.793 17.5656 106.546 17.3056C106.299 17.039 105.963 16.9056 105.536 16.9056C105.109 16.9056 104.769 17.039 104.516 17.3056C104.269 17.5656 104.146 17.9423 104.146 18.4356V21.5156H103.006V16.0056H104.146V16.6356C104.333 16.409 104.569 16.2323 104.856 16.1056C105.149 15.979 105.459 15.9156 105.786 15.9156ZM113.428 16.9356V19.9856C113.428 20.1923 113.474 20.3423 113.568 20.4356C113.668 20.5223 113.834 20.5656 114.068 20.5656H114.768V21.5156H113.868C113.354 21.5156 112.961 21.3956 112.688 21.1556C112.414 20.9156 112.278 20.5256 112.278 19.9856V16.9356H111.628V16.0056H112.278V14.6356H113.428V16.0056H114.768V16.9356H113.428ZM118.668 15.9156C119.088 15.9156 119.462 16.0056 119.788 16.1856C120.122 16.3656 120.382 16.6323 120.568 16.9856C120.762 17.339 120.858 17.7656 120.858 18.2656V21.5156H119.728V18.4356C119.728 17.9423 119.605 17.5656 119.358 17.3056C119.112 17.039 118.775 16.9056 118.348 16.9056C117.922 16.9056 117.582 17.039 117.328 17.3056C117.082 17.5656 116.958 17.9423 116.958 18.4356V21.5156H115.818V14.1156H116.958V16.6456C117.152 16.4123 117.395 16.2323 117.688 16.1056C117.988 15.979 118.315 15.9156 118.668 15.9156ZM127.363 18.6256C127.363 18.8323 127.349 19.019 127.323 19.1856H123.113C123.146 19.6256 123.309 19.979 123.603 20.2456C123.896 20.5123 124.256 20.6456 124.683 20.6456C125.296 20.6456 125.729 20.389 125.983 19.8756H127.212C127.046 20.3823 126.743 20.799 126.303 21.1256C125.869 21.4456 125.329 21.6056 124.683 21.6056C124.156 21.6056 123.683 21.489 123.263 21.2556C122.849 21.0156 122.523 20.6823 122.283 20.2556C122.049 19.8223 121.933 19.3223 121.933 18.7556C121.933 18.189 122.046 17.6923 122.273 17.2656C122.506 16.8323 122.829 16.499 123.243 16.2656C123.663 16.0323 124.143 15.9156 124.683 15.9156C125.203 15.9156 125.666 16.029 126.073 16.2556C126.479 16.4823 126.796 16.8023 127.023 17.2156C127.249 17.6223 127.363 18.0923 127.363 18.6256ZM126.173 18.2656C126.166 17.8456 126.016 17.509 125.723 17.2556C125.429 17.0023 125.066 16.8756 124.633 16.8756C124.239 16.8756 123.903 17.0023 123.623 17.2556C123.343 17.5023 123.176 17.839 123.123 18.2656H126.173Z" fill="white"/>
<path d="M48.428 36.8116H44.936L44.336 38.5156H42.908L45.896 30.1636H47.48L50.468 38.5156H49.028L48.428 36.8116ZM48.044 35.6956L46.688 31.8196L45.32 35.6956H48.044ZM52.8952 32.8756C53.1272 32.5716 53.4432 32.3156 53.8432 32.1076C54.2432 31.8996 54.6952 31.7956 55.1992 31.7956C55.7752 31.7956 56.2992 31.9396 56.7712 32.2276C57.2512 32.5076 57.6272 32.9036 57.8992 33.4156C58.1712 33.9276 58.3072 34.5156 58.3072 35.1796C58.3072 35.8436 58.1712 36.4396 57.8992 36.9676C57.6272 37.4876 57.2512 37.8956 56.7712 38.1916C56.2992 38.4796 55.7752 38.6236 55.1992 38.6236C54.6952 38.6236 54.2472 38.5236 53.8552 38.3236C53.4632 38.1156 53.1432 37.8596 52.8952 37.5556V41.6596H51.5272V31.9036H52.8952V32.8756ZM56.9152 35.1796C56.9152 34.7236 56.8192 34.3316 56.6272 34.0036C56.4432 33.6676 56.1952 33.4156 55.8832 33.2476C55.5792 33.0716 55.2512 32.9836 54.8992 32.9836C54.5552 32.9836 54.2272 33.0716 53.9152 33.2476C53.6112 33.4236 53.3632 33.6796 53.1712 34.0156C52.9872 34.3516 52.8952 34.7476 52.8952 35.2036C52.8952 35.6596 52.9872 36.0596 53.1712 36.4036C53.3632 36.7396 53.6112 36.9956 53.9152 37.1716C54.2272 37.3476 54.5552 37.4356 54.8992 37.4356C55.2512 37.4356 55.5792 37.3476 55.8832 37.1716C56.1952 36.9876 56.4432 36.7236 56.6272 36.3796C56.8192 36.0356 56.9152 35.6356 56.9152 35.1796ZM60.788 32.8756C61.02 32.5716 61.336 32.3156 61.736 32.1076C62.136 31.8996 62.588 31.7956 63.092 31.7956C63.668 31.7956 64.192 31.9396 64.664 32.2276C65.144 32.5076 65.52 32.9036 65.792 33.4156C66.064 33.9276 66.2 34.5156 66.2 35.1796C66.2 35.8436 66.064 36.4396 65.792 36.9676C65.52 37.4876 65.144 37.8956 64.664 38.1916C64.192 38.4796 63.668 38.6236 63.092 38.6236C62.588 38.6236 62.14 38.5236 61.748 38.3236C61.356 38.1156 61.036 37.8596 60.788 37.5556V41.6596H59.42V31.9036H60.788V32.8756ZM64.808 35.1796C64.808 34.7236 64.712 34.3316 64.52 34.0036C64.336 33.6676 64.088 33.4156 63.776 33.2476C63.472 33.0716 63.144 32.9836 62.792 32.9836C62.448 32.9836 62.12 33.0716 61.808 33.2476C61.504 33.4236 61.256 33.6796 61.064 34.0156C60.88 34.3516 60.788 34.7476 60.788 35.2036C60.788 35.6596 60.88 36.0596 61.064 36.4036C61.256 36.7396 61.504 36.9956 61.808 37.1716C62.12 37.3476 62.448 37.4356 62.792 37.4356C63.144 37.4356 63.472 37.3476 63.776 37.1716C64.088 36.9876 64.336 36.7236 64.52 36.3796C64.712 36.0356 64.808 35.6356 64.808 35.1796ZM72.938 38.5996C72.378 38.5996 71.874 38.5036 71.426 38.3116C70.978 38.1116 70.626 37.8316 70.37 37.4716C70.114 37.1116 69.986 36.6916 69.986 36.2116H71.45C71.482 36.5716 71.622 36.8676 71.87 37.0996C72.126 37.3316 72.482 37.4476 72.938 37.4476C73.41 37.4476 73.778 37.3356 74.042 37.1116C74.306 36.8796 74.438 36.5836 74.438 36.2236C74.438 35.9436 74.354 35.7156 74.186 35.5396C74.026 35.3636 73.822 35.2276 73.574 35.1316C73.334 35.0356 72.998 34.9316 72.566 34.8196C72.022 34.6756 71.578 34.5316 71.234 34.3876C70.898 34.2356 70.61 34.0036 70.37 33.6916C70.13 33.3796 70.01 32.9636 70.01 32.4436C70.01 31.9636 70.13 31.5436 70.37 31.1836C70.61 30.8236 70.946 30.5476 71.378 30.3556C71.81 30.1636 72.31 30.0676 72.878 30.0676C73.686 30.0676 74.346 30.2716 74.858 30.6796C75.378 31.0796 75.666 31.6316 75.722 32.3356H74.21C74.186 32.0316 74.042 31.7716 73.778 31.5556C73.514 31.3396 73.166 31.2316 72.734 31.2316C72.342 31.2316 72.022 31.3316 71.774 31.5316C71.526 31.7316 71.402 32.0196 71.402 32.3956C71.402 32.6516 71.478 32.8636 71.63 33.0316C71.79 33.1916 71.99 33.3196 72.23 33.4156C72.47 33.5116 72.798 33.6156 73.214 33.7276C73.766 33.8796 74.214 34.0316 74.558 34.1836C74.91 34.3356 75.206 34.5716 75.446 34.8916C75.694 35.2036 75.818 35.6236 75.818 36.1516C75.818 36.5756 75.702 36.9756 75.47 37.3516C75.246 37.7276 74.914 38.0316 74.474 38.2636C74.042 38.4876 73.53 38.5996 72.938 38.5996ZM78.7882 33.0196V36.6796C78.7882 36.9276 78.8442 37.1076 78.9562 37.2196C79.0762 37.3236 79.2762 37.3756 79.5562 37.3756H80.3962V38.5156H79.3162C78.7002 38.5156 78.2282 38.3716 77.9002 38.0836C77.5722 37.7956 77.4082 37.3276 77.4082 36.6796V33.0196H76.6282V31.9036H77.4082V30.2596H78.7882V31.9036H80.3962V33.0196H78.7882ZM84.285 38.6236C83.661 38.6236 83.097 38.4836 82.593 38.2036C82.089 37.9156 81.693 37.5156 81.405 37.0036C81.117 36.4836 80.973 35.8836 80.973 35.2036C80.973 34.5316 81.121 33.9356 81.417 33.4156C81.713 32.8956 82.117 32.4956 82.629 32.2156C83.141 31.9356 83.713 31.7956 84.345 31.7956C84.977 31.7956 85.549 31.9356 86.061 32.2156C86.573 32.4956 86.977 32.8956 87.273 33.4156C87.569 33.9356 87.717 34.5316 87.717 35.2036C87.717 35.8756 87.565 36.4716 87.261 36.9916C86.957 37.5116 86.541 37.9156 86.013 38.2036C85.493 38.4836 84.917 38.6236 84.285 38.6236ZM84.285 37.4356C84.637 37.4356 84.965 37.3516 85.269 37.1836C85.581 37.0156 85.833 36.7636 86.025 36.4276C86.217 36.0916 86.313 35.6836 86.313 35.2036C86.313 34.7236 86.221 34.3196 86.037 33.9916C85.853 33.6556 85.609 33.4036 85.305 33.2356C85.001 33.0676 84.673 32.9836 84.321 32.9836C83.969 32.9836 83.641 33.0676 83.337 33.2356C83.041 33.4036 82.805 33.6556 82.629 33.9916C82.453 34.3196 82.365 34.7236 82.365 35.2036C82.365 35.9156 82.545 36.4676 82.905 36.8596C83.273 37.2436 83.733 37.4356 84.285 37.4356ZM90.1974 32.8636C90.3974 32.5276 90.6614 32.2676 90.9894 32.0836C91.3254 31.8916 91.7214 31.7956 92.1774 31.7956V33.2116H91.8294C91.2934 33.2116 90.8854 33.3476 90.6054 33.6196C90.3334 33.8916 90.1974 34.3636 90.1974 35.0356V38.5156H88.8294V31.9036H90.1974V32.8636ZM99.2548 35.0476C99.2548 35.2956 99.2388 35.5196 99.2068 35.7196H94.1548C94.1948 36.2476 94.3908 36.6716 94.7428 36.9916C95.0948 37.3116 95.5268 37.4716 96.0388 37.4716C96.7748 37.4716 97.2948 37.1636 97.5988 36.5476H99.0748C98.8748 37.1556 98.5108 37.6556 97.9828 38.0476C97.4628 38.4316 96.8148 38.6236 96.0388 38.6236C95.4068 38.6236 94.8388 38.4836 94.3348 38.2036C93.8388 37.9156 93.4468 37.5156 93.1588 37.0036C92.8788 36.4836 92.7388 35.8836 92.7388 35.2036C92.7388 34.5236 92.8748 33.9276 93.1468 33.4156C93.4268 32.8956 93.8148 32.4956 94.3108 32.2156C94.8148 31.9356 95.3908 31.7956 96.0388 31.7956C96.6628 31.7956 97.2188 31.9316 97.7068 32.2036C98.1948 32.4756 98.5748 32.8596 98.8468 33.3556C99.1188 33.8436 99.2548 34.4076 99.2548 35.0476ZM97.8268 34.6156C97.8188 34.1116 97.6388 33.7076 97.2868 33.4036C96.9348 33.0996 96.4988 32.9476 95.9788 32.9476C95.5068 32.9476 95.1028 33.0996 94.7668 33.4036C94.4308 33.6996 94.2308 34.1036 94.1668 34.6156H97.8268Z" fill="white"/>
</svg>
