<svg width="29" height="28" viewBox="0 0 29 28" fill="none" xmlns="http://www.w3.org/2000/svg">
<path d="M13.125 3.6875C13.125 3.43886 13.2238 3.2004 13.3996 3.02459C13.5754 2.84877 13.8139 2.75 14.0625 2.75H27.1875C27.4361 2.75 27.6746 2.84877 27.8504 3.02459C28.0262 3.2004 28.125 3.43886 28.125 3.6875V5.5625C28.125 5.81114 28.0262 6.0496 27.8504 6.22541C27.6746 6.40123 27.4361 6.5 27.1875 6.5H14.0625C13.8139 6.5 13.5754 6.40123 13.3996 6.22541C13.2238 6.0496 13.125 5.81114 13.125 5.5625V3.6875ZM3.75 0.875C2.75544 0.875 1.80161 1.27009 1.09835 1.97335C0.395088 2.67661 0 3.63044 0 4.625L0 8.375C0 9.36956 0.395088 10.3234 1.09835 11.0267C1.80161 11.7299 2.75544 12.125 3.75 12.125H7.5C8.49456 12.125 9.44839 11.7299 10.1517 11.0267C10.8549 10.3234 11.25 9.36956 11.25 8.375V4.625C11.25 3.63044 10.8549 2.67661 10.1517 1.97335C9.44839 1.27009 8.49456 0.875 7.5 0.875H3.75ZM3.75 15.875C2.75544 15.875 1.80161 16.2701 1.09835 16.9734C0.395088 17.6766 0 18.6304 0 19.625L0 23.375C0 24.3696 0.395088 25.3234 1.09835 26.0266C1.80161 26.7299 2.75544 27.125 3.75 27.125H7.5C8.49456 27.125 9.44839 26.7299 10.1517 26.0266C10.8549 25.3234 11.25 24.3696 11.25 23.375V19.625C11.25 18.6304 10.8549 17.6766 10.1517 16.9734C9.44839 16.2701 8.49456 15.875 7.5 15.875H3.75ZM5.35125 9.03875C5.26416 9.12606 5.16071 9.19532 5.04681 9.24259C4.93292 9.28985 4.81081 9.31418 4.6875 9.31418C4.56419 9.31418 4.44208 9.28985 4.32819 9.24259C4.21429 9.19532 4.11084 9.12606 4.02375 9.03875L2.14875 7.16375C2.06159 7.07659 1.99244 6.97311 1.94527 6.85922C1.8981 6.74533 1.87382 6.62327 1.87382 6.5C1.87382 6.37673 1.8981 6.25467 1.94527 6.14078C1.99244 6.02689 2.06159 5.92341 2.14875 5.83625C2.23591 5.74908 2.33939 5.67994 2.45328 5.63277C2.56717 5.5856 2.68923 5.56132 2.8125 5.56132C2.93577 5.56132 3.05783 5.5856 3.17172 5.63277C3.28561 5.67994 3.38909 5.74908 3.47625 5.83625L4.6875 7.04938L7.77375 3.96125C7.86091 3.87408 7.96439 3.80494 8.07828 3.75777C8.19217 3.7106 8.31423 3.68632 8.4375 3.68632C8.56077 3.68632 8.68283 3.7106 8.79672 3.75777C8.91061 3.80494 9.01408 3.87408 9.10125 3.96125C9.18842 4.04841 9.25756 4.15189 9.30473 4.26578C9.3519 4.37967 9.37618 4.50173 9.37618 4.625C9.37618 4.74827 9.3519 4.87033 9.30473 4.98422C9.25756 5.09811 9.18842 5.20159 9.10125 5.28875L5.35125 9.03875ZM5.35125 24.0387C5.26416 24.1261 5.16071 24.1953 5.04681 24.2426C4.93292 24.2898 4.81081 24.3142 4.6875 24.3142C4.56419 24.3142 4.44208 24.2898 4.32819 24.2426C4.21429 24.1953 4.11084 24.1261 4.02375 24.0387L2.14875 22.1637C1.97271 21.9877 1.87382 21.749 1.87382 21.5C1.87382 21.251 1.97271 21.0123 2.14875 20.8363C2.32479 20.6602 2.56355 20.5613 2.8125 20.5613C3.06145 20.5613 3.30021 20.6602 3.47625 20.8363L4.6875 22.0494L7.77375 18.9613C7.94979 18.7852 8.18855 18.6863 8.4375 18.6863C8.68645 18.6863 8.92521 18.7852 9.10125 18.9613C9.27729 19.1373 9.37618 19.376 9.37618 19.625C9.37618 19.874 9.27729 20.1127 9.10125 20.2887L5.35125 24.0387ZM13.125 18.6875C13.125 18.4389 13.2238 18.2004 13.3996 18.0246C13.5754 17.8488 13.8139 17.75 14.0625 17.75H27.1875C27.4361 17.75 27.6746 17.8488 27.8504 18.0246C28.0262 18.2004 28.125 18.4389 28.125 18.6875V20.5625C28.125 20.8111 28.0262 21.0496 27.8504 21.2254C27.6746 21.4012 27.4361 21.5 27.1875 21.5H14.0625C13.8139 21.5 13.5754 21.4012 13.3996 21.2254C13.2238 21.0496 13.125 20.8111 13.125 20.5625V18.6875ZM13.125 9.3125C13.125 9.06386 13.2238 8.8254 13.3996 8.64959C13.5754 8.47377 13.8139 8.375 14.0625 8.375H23.4375C23.6861 8.375 23.9246 8.47377 24.1004 8.64959C24.2762 8.8254 24.375 9.06386 24.375 9.3125C24.375 9.56114 24.2762 9.7996 24.1004 9.97541C23.9246 10.1512 23.6861 10.25 23.4375 10.25H14.0625C13.8139 10.25 13.5754 10.1512 13.3996 9.97541C13.2238 9.7996 13.125 9.56114 13.125 9.3125ZM13.125 24.3125C13.125 24.0639 13.2238 23.8254 13.3996 23.6496C13.5754 23.4738 13.8139 23.375 14.0625 23.375H23.4375C23.6861 23.375 23.9246 23.4738 24.1004 23.6496C24.2762 23.8254 24.375 24.0639 24.375 24.3125C24.375 24.5611 24.2762 24.7996 24.1004 24.9754C23.9246 25.1512 23.6861 25.25 23.4375 25.25H14.0625C13.8139 25.25 13.5754 25.1512 13.3996 24.9754C13.2238 24.7996 13.125 24.5611 13.125 24.3125Z" fill="#1B1B1B"/>
</svg>
