<svg width="56" height="31" viewBox="0 0 56 31" fill="none" xmlns="http://www.w3.org/2000/svg">
<path fill-rule="evenodd" clip-rule="evenodd" d="M22.038 14.7186C23.5773 16.5541 25.7526 17.1232 27.7786 16.6775C29.4409 16.3118 31.0072 15.2554 32.0697 13.658C32.1783 14.0492 32.3535 14.821 32.5405 15.1158C33.008 15.4082 33.5774 15.4415 34.1507 15.3153C35.4501 15.0294 36.6615 13.9128 36.4633 13.304C35.3897 10.1602 34.4751 7.09994 34.06 3.85086C33.8191 3.05392 32.6318 2.86044 31.5996 3.08758C30.7972 3.26405 30.0883 3.67723 29.9635 4.27786C29.9315 6.08365 29.7596 12.4071 27.1991 12.9705C26.97 13.0212 26.7319 13.034 26.4813 12.99C24.1812 12.6662 23.8223 7.01277 23.8989 5.13788C23.6946 4.56949 22.2826 4.45929 21.1295 4.66481C21.3741 5.33844 21.523 6.06664 21.5596 6.84587C21.6755 8.73494 21.2787 10.7115 20.8151 12.6088C21.1719 13.4216 21.5863 14.1506 22.0383 14.7193L22.038 14.7186ZM19.5053 6.30831C19.4826 6.83453 19.5074 7.40646 19.5747 8.00001C19.5908 7.64672 19.5905 7.29945 19.57 6.96068V6.94545C19.5603 6.72752 19.5387 6.51526 19.5056 6.30831H19.5053Z" fill="white"/>
<path d="M44.4251 9.43977C45.1541 9.73814 47.0927 9.74842 49.1665 9.62227C46.9434 11.545 44.3557 13.9943 43.8647 15.2168C43.5428 15.9546 43.5587 18.3274 44.3244 18.4709C45.3843 18.6289 47.775 18.749 50.0657 18.7157C52.2582 18.6842 54.3902 18.518 55.2268 18.1395C56.25 17.1601 56.3428 14.1874 54.9902 14.0914C53.1552 14.4652 51.377 14.7225 49.5571 14.8065C51.3853 12.6385 53.3681 10.3526 55.4994 8.83631C56.2587 8.5553 56.0127 5.16306 55.1538 5.3491C53.9241 5.6177 52.4962 5.73499 51.0083 5.75625C48.6784 5.78991 46.2083 5.59431 44.2283 5.44902C43.0915 5.36894 43.531 8.58471 44.4247 9.43977H44.4251Z" fill="white"/>
<path d="M24.3721 24.1151C24.493 24.2171 24.6541 24.2568 24.821 24.2568C25.218 24.2568 25.6443 24.03 25.6209 23.8599C25.4367 23.2816 25.3504 22.4195 25.3447 21.5913C25.3907 21.6651 25.9201 22.3741 26.3981 22.737C26.5477 22.8504 26.6747 22.8957 26.7837 22.8957C27.0196 22.8957 27.1807 22.6746 27.348 22.4305C27.5609 22.1243 27.7853 21.8351 28.0328 21.5513C28.0155 22.6062 28.0961 23.7405 28.309 24.1147C28.4298 24.2168 28.591 24.2565 28.7578 24.2565C29.1492 24.2565 29.5811 24.0297 29.5581 23.8596C29.2243 22.799 29.1725 20.8199 29.4545 19.7367C29.4315 19.5155 29.0977 19.3908 28.7812 19.3908C28.6201 19.3908 28.459 19.4248 28.3554 19.4929C28.0849 19.6743 26.9394 21.3585 26.7955 21.5403C26.3524 21.0584 25.8399 20.2359 25.4889 19.6516C25.4026 19.4702 25.1436 19.3851 24.8846 19.3851C24.6314 19.3851 24.3836 19.4702 24.3149 19.6176C24.033 20.3153 24.0038 23.4287 24.3725 24.1151H24.3721ZM29.8462 22.4135C29.8462 23.4173 30.6982 24.2455 31.7402 24.2455C32.7763 24.2455 33.6108 23.4173 33.6108 22.4135C33.6108 21.3926 32.7763 20.5648 31.7402 20.5648C30.6982 20.5648 29.8462 21.3929 29.8462 22.4135ZM31.1068 22.3738C31.1068 21.9085 31.4118 21.5286 31.8035 21.5286C32.1948 21.5286 32.4883 21.9085 32.4883 22.3738C32.4883 22.8387 32.1948 23.2302 31.8035 23.2302C31.4121 23.2302 31.1068 22.839 31.1068 22.3738ZM34.2959 24.1147C34.411 24.2168 34.5721 24.2565 34.739 24.2565C35.1303 24.2565 35.5623 24.0297 35.545 23.8596C35.0616 22.3341 35.4645 21.7558 35.8845 21.7558C36.1608 21.7558 36.4485 22.0109 36.4888 22.4135C36.5175 22.7455 36.3161 23.7019 36.4658 23.9843C36.6384 24.1771 36.8974 24.2565 37.1452 24.2565C37.4904 24.2565 37.8012 24.1034 37.79 23.9049C37.5714 23.0343 38.3256 21.0864 36.587 20.8196C36.4546 20.8026 36.3338 20.7912 36.2129 20.7912C35.8792 20.7912 35.568 20.8593 35.2746 20.967C35.2861 20.7572 35.4184 20.5871 35.3206 20.4624C35.217 20.332 34.9696 20.2639 34.7279 20.2639C34.4862 20.2639 34.2445 20.3376 34.1636 20.4907C33.8873 21.1711 33.9161 23.4397 34.2959 24.1147ZM40.121 24.2281C40.4433 24.1544 40.7483 24.0297 40.9961 23.8312C41.3183 23.5364 41.0881 22.7423 40.5587 22.7763C40.4551 22.782 40.1732 23.0336 39.9426 23.0835C39.8678 23.1005 39.7987 23.1108 39.7354 23.1108C39.5513 23.1108 39.4132 23.0275 39.3384 22.8217C39.9142 22.8376 40.553 22.7763 40.9788 22.3624C41.3759 21.9372 41.4277 21.3302 41.0939 20.8766C40.8062 20.5024 40.3512 20.338 39.8851 20.338C38.8435 20.338 38.2331 21.0414 38.1123 22.0393C38.0145 23.2019 38.5611 24.2568 39.77 24.2568C39.8793 24.2568 40.0002 24.2455 40.121 24.2285V24.2281ZM39.8045 21.2108C40.2361 21.0974 40.4839 21.619 39.9484 21.7554C39.8736 21.7781 39.793 21.7894 39.6952 21.7894C39.5973 21.7894 39.4765 21.7781 39.338 21.7497C39.3956 21.4833 39.6027 21.2678 39.8041 21.2111L39.8045 21.2108ZM43.0853 24.1994C43.2062 24.2221 43.3328 24.2391 43.4651 24.2391C43.8277 24.2391 44.1963 24.137 44.5243 23.9216V23.9953C44.5013 24.6477 44.1039 25.1636 43.655 25.1636C43.4364 25.1636 43.2062 25.0445 42.9987 24.7554C42.9296 24.6193 42.826 24.5626 42.6994 24.5626C42.2732 24.5626 41.669 25.2717 42.1236 25.6912C42.5786 26.1108 43.1368 26.3149 43.6777 26.3149C44.4837 26.3149 45.2491 25.8613 45.5832 24.9935C45.9227 24.0973 45.7616 22.26 45.9112 20.95C45.9342 20.7572 46.0205 20.6665 45.8076 20.5588C45.6292 20.4794 45.33 20.4057 45.071 20.4057C44.7833 20.4057 44.5589 20.4907 44.6107 20.7402C44.5876 21.3302 44.5301 23.1108 43.6608 23.1108C43.563 23.1108 43.4594 23.0881 43.3385 23.0371C42.6879 22.782 42.9127 21.2225 43.0508 20.6551C43.0278 20.468 42.6192 20.3546 42.2797 20.3546C42.0553 20.3546 41.8596 20.4057 41.8193 20.5191C41.3762 21.6647 41.5258 23.8539 43.0857 24.1998L43.0853 24.1994Z" fill="white"/>
<path d="M7.47342 13.9082C7.18498 11.5319 7.03284 9.3271 9.37352 7.65135C10.8003 6.71586 12.2501 6.7885 13.1158 8.11733C14.293 9.93057 10.7435 17.2438 10.6485 19.3784C10.5787 22.9698 14.3333 23.7554 17.3584 22.1175C18.059 21.7384 18.7388 21.2476 19.2995 20.6176C18.9689 19.653 18.6402 17.5024 18.943 16.1134C19.4998 13.3203 20.7475 9.90824 20.564 6.90331C20.2896 0.76198 11.9656 -1.67563 6.64764 1.20351C2.24394 3.3424 -0.717155 7.84554 0.151428 12.9709C0.689842 16.315 4.53391 16.0715 6.44479 15.0372C7.04974 14.7098 7.45724 14.3256 7.47342 13.9086V13.9082ZM15.5953 28.5456C16.575 30.3025 18.778 30.907 20.5612 29.9417C22.3444 28.9765 23.0076 26.8202 22.0279 25.0633C21.083 23.3691 18.8276 22.6703 17.0444 23.6356C15.2612 24.6009 14.6505 26.8514 15.5953 28.5456Z" fill="white"/>
<path d="M37.5585 16.4773C37.9502 16.8246 38.4983 16.9596 39.0662 16.9596C40.4171 16.9596 41.8662 16.1878 41.827 15.6091C41.3177 11.3459 41.2789 9.64815 41.5724 6.6581C41.4939 5.88632 40.3779 5.48129 39.3011 5.48129C38.4983 5.48129 37.6956 5.73217 37.4409 6.23358C36.873 8.23994 36.6576 13.815 37.5582 16.4769L37.5585 16.4773ZM39.8496 1.06284C40.9573 1.06284 41.8558 1.94766 41.8558 3.03943C41.8558 4.13084 40.9577 5.01602 39.8496 5.01602C38.7418 5.01602 37.8434 4.13119 37.8434 3.03943C37.8434 1.94801 38.7415 1.06284 39.8496 1.06284ZM39.0713 4.02383C39.1245 4.06847 39.1979 4.08619 39.2709 4.08619C39.4453 4.08619 39.6323 3.98662 39.6219 3.91185C39.5917 3.81227 39.5662 3.69605 39.5464 3.56954L39.6611 3.5699L39.837 3.56919C40.001 3.7857 40.179 3.99761 40.274 4.04899C40.3193 4.07663 40.375 4.08655 40.4304 4.08655C40.6023 4.08655 40.7915 3.98449 40.784 3.9122C40.7502 3.8066 40.7232 3.67939 40.7027 3.54013C40.8261 3.53127 40.9358 3.52064 41.0257 3.50718C41.3199 3.43879 41.1271 3.12412 40.9393 3.13192L40.6642 3.14822C40.6595 3.06352 40.6574 2.97742 40.657 2.89237C40.7987 2.88316 40.9246 2.87146 41.0253 2.85658C41.3195 2.78819 41.1267 2.47352 40.939 2.48132L40.6725 2.49726C40.6851 2.35481 40.7052 2.2237 40.7325 2.1142C40.7225 2.01711 40.5808 1.96254 40.4445 1.96254C40.3384 1.96254 40.2373 1.99479 40.2071 2.0646C40.1736 2.14858 40.147 2.31761 40.1305 2.52491C40.0165 2.52987 39.9075 2.53376 39.8021 2.53695C39.7176 2.38068 39.6489 2.2315 39.6057 2.10429C39.5755 2.01215 39.4263 1.95723 39.2899 1.95723C39.1838 1.95723 39.0828 1.98947 39.0475 2.06424C39.0112 2.15212 38.9842 2.33072 38.968 2.54652C38.8713 2.54581 38.7742 2.54404 38.6756 2.54191C38.366 2.55892 38.3106 2.83213 38.5792 2.87926C38.6494 2.8906 38.7821 2.90016 38.9519 2.9069C38.9501 3.00293 38.9504 3.10073 38.9526 3.19676C38.8609 3.1957 38.7688 3.19428 38.6756 3.19215C38.366 3.20916 38.3106 3.48237 38.5792 3.5295C38.6523 3.5412 38.7929 3.55111 38.9724 3.55785C38.9914 3.76692 39.0234 3.93878 39.0702 4.02347L39.0713 4.02383ZM40.1132 2.9147L40.1121 3.03553C40.0848 2.99619 40.0575 2.95686 40.0308 2.91647L40.1132 2.9147ZM39.5065 3.19463C39.5043 3.16026 39.5025 3.12518 39.5011 3.09046C39.5169 3.11668 39.5399 3.15176 39.568 3.19357L39.5065 3.19463Z" fill="white"/>
</svg>
