<svg width="32" height="33" viewBox="0 0 32 33" fill="none" xmlns="http://www.w3.org/2000/svg">
<path d="M2.56738 2H8.44141C9.02781 2 9.50863 2.47968 9.50879 3.06738L9.5127 3.46484C9.55146 5.43773 9.8793 7.37603 10.4893 9.23145V9.23242C10.6175 9.64107 10.5106 10.0571 10.2246 10.3428L10.1494 10.417L10.0859 10.502L7.4502 14.0068L6.87695 14.7686L7.32422 15.6113C9.66172 20.0188 12.4477 22.8033 16.8799 25.1699L17.7256 25.6211L18.4902 25.0439L22.0879 22.3271L22.1787 22.2588L22.2588 22.1768C22.2842 22.1507 22.411 22.0554 22.6494 22.002C22.8776 21.9509 23.0901 21.9661 23.2354 22.0156L23.2412 22.0176L23.248 22.0195C25.2253 22.6731 27.3078 23.0039 29.4229 23.0039C30.0093 23.0039 30.4902 23.4844 30.4902 24.0723V29.9326C30.49 30.5203 30.0093 31 29.4229 31C14.0277 30.9998 1.5 18.4684 1.5 3.06738C1.5002 2.47971 1.98097 2 2.56738 2Z" stroke="#17478B" stroke-width="3"/>
</svg>
