<svg width="151" height="56" viewBox="0 0 151 56" fill="none" xmlns="http://www.w3.org/2000/svg">
<rect x="0.5" width="150" height="56" rx="28" fill="#1B1B1B"/>
<path d="M23.8636 16.6215C23.608 16.9719 23.4789 17.421 23.5028 17.8769V37.639C23.4788 38.0949 23.6079 38.5441 23.8636 38.8944L23.9212 38.9588L33.5778 27.8885V27.6273L23.9212 16.5566L23.8636 16.6215Z" fill="url(#paint0_linear_2237_8066)"/>
<path d="M36.7958 31.5801L33.5771 27.8885V27.6273L36.7966 23.9365L36.8691 23.984L40.6828 26.4682C41.7721 27.1777 41.7721 28.3386 40.6828 29.0485L36.8691 31.5327L36.7958 31.5801Z" fill="url(#paint1_linear_2237_8066)"/>
<path d="M36.8695 31.5321L33.5775 27.7578L23.8633 38.8942C24.0852 39.1186 24.3687 39.247 24.6645 39.257C24.9603 39.267 25.2499 39.1581 25.483 38.9491L36.8695 31.5321Z" fill="url(#paint2_linear_2237_8066)"/>
<path d="M36.8695 23.9833L25.483 16.5664C25.2499 16.3574 24.9603 16.2484 24.6645 16.2584C24.3687 16.2685 24.0852 16.3968 23.8633 16.6212L33.5775 27.7577L36.8695 23.9833Z" fill="url(#paint3_linear_2237_8066)"/>
<path opacity="0.2" d="M36.7969 31.4492L25.483 38.8187C25.2589 39.0143 24.9853 39.1211 24.7036 39.1228C24.4219 39.1245 24.1473 39.0211 23.9213 38.8283L23.8633 38.8948L23.921 38.9593L23.9213 38.9588C24.1473 39.1518 24.4219 39.2552 24.7036 39.2535C24.9853 39.2518 25.2589 39.145 25.483 38.9492L36.8695 31.5323L36.7969 31.4492Z" fill="#1D1D1D"/>
<path opacity="0.12" d="M23.8635 38.7632C23.608 38.4128 23.4789 37.9637 23.5028 37.5078V37.6384C23.4789 38.0943 23.608 38.5434 23.8635 38.8937L23.9216 38.8272L23.8635 38.7632Z" fill="#1D1D1D"/>
<path opacity="0.12" d="M40.6831 28.917L36.7969 31.4487L36.8694 31.5318L40.6831 29.0476C40.9074 28.936 41.1016 28.7574 41.2453 28.5306C41.389 28.3038 41.477 28.0369 41.5002 27.7578C41.452 28.0106 41.353 28.2469 41.2112 28.4482C41.0693 28.6494 40.8885 28.8099 40.6831 28.917Z" fill="#1D1D1D"/>
<path opacity="0.25" d="M25.4824 16.697L40.6825 26.5976C40.888 26.7047 41.0689 26.8653 41.2107 27.0666C41.3526 27.268 41.4515 27.5045 41.4996 27.7573C41.4766 27.4781 41.3886 27.2111 41.2449 26.9842C41.1012 26.7572 40.907 26.5786 40.6825 26.4671L25.4824 16.5664C24.3931 15.8568 23.502 16.4462 23.502 17.8766V18.0072C23.502 16.5769 24.3931 15.9875 25.4824 16.697Z" fill="white"/>
<path d="M53.28 18.8078C53.1 18.4611 52.85 18.2011 52.53 18.0278C52.21 17.8478 51.84 17.7578 51.42 17.7578C50.96 17.7578 50.55 17.8611 50.19 18.0678C49.83 18.2745 49.5467 18.5678 49.34 18.9478C49.14 19.3278 49.04 19.7678 49.04 20.2678C49.04 20.7678 49.14 21.2111 49.34 21.5978C49.5467 21.9778 49.83 22.2711 50.19 22.4778C50.55 22.6845 50.96 22.7878 51.42 22.7878C52.04 22.7878 52.5433 22.6145 52.93 22.2678C53.3167 21.9211 53.5533 21.4511 53.64 20.8578H51.03V19.9478H54.86V20.8378C54.7867 21.3778 54.5933 21.8745 54.28 22.3278C53.9733 22.7811 53.57 23.1445 53.07 23.4178C52.5767 23.6845 52.0267 23.8178 51.42 23.8178C50.7667 23.8178 50.17 23.6678 49.63 23.3678C49.09 23.0611 48.66 22.6378 48.34 22.0978C48.0267 21.5578 47.87 20.9478 47.87 20.2678C47.87 19.5878 48.0267 18.9778 48.34 18.4378C48.66 17.8978 49.09 17.4778 49.63 17.1778C50.1767 16.8711 50.7733 16.7178 51.42 16.7178C52.16 16.7178 52.8167 16.9011 53.39 17.2678C53.97 17.6278 54.39 18.1411 54.65 18.8078H53.28ZM57.1244 17.7278V19.7678H59.5244V20.6978H57.1244V22.8278H59.8244V23.7578H55.9844V16.7978H59.8244V17.7278H57.1244ZM65.7185 16.8078V17.7378H63.8685V23.7578H62.7285V17.7378H60.8685V16.8078H65.7185ZM70.6107 16.8078V23.7578H69.4707V16.8078H70.6107ZM76.5974 16.8078V17.7378H74.7474V23.7578H73.6074V17.7378H71.7474V16.8078H76.5974ZM83.5196 23.8278C82.8729 23.8278 82.2763 23.6778 81.7296 23.3778C81.1896 23.0711 80.7596 22.6478 80.4396 22.1078C80.1263 21.5611 79.9696 20.9478 79.9696 20.2678C79.9696 19.5878 80.1263 18.9778 80.4396 18.4378C80.7596 17.8978 81.1896 17.4778 81.7296 17.1778C82.2763 16.8711 82.8729 16.7178 83.5196 16.7178C84.1729 16.7178 84.7696 16.8711 85.3096 17.1778C85.8563 17.4778 86.2863 17.8978 86.5996 18.4378C86.9129 18.9778 87.0696 19.5878 87.0696 20.2678C87.0696 20.9478 86.9129 21.5611 86.5996 22.1078C86.2863 22.6478 85.8563 23.0711 85.3096 23.3778C84.7696 23.6778 84.1729 23.8278 83.5196 23.8278ZM83.5196 22.8378C83.9796 22.8378 84.3896 22.7345 84.7496 22.5278C85.1096 22.3145 85.3896 22.0145 85.5896 21.6278C85.7963 21.2345 85.8996 20.7811 85.8996 20.2678C85.8996 19.7545 85.7963 19.3045 85.5896 18.9178C85.3896 18.5311 85.1096 18.2345 84.7496 18.0278C84.3896 17.8211 83.9796 17.7178 83.5196 17.7178C83.0596 17.7178 82.6496 17.8211 82.2896 18.0278C81.9296 18.2345 81.6463 18.5311 81.4396 18.9178C81.2396 19.3045 81.1396 19.7545 81.1396 20.2678C81.1396 20.7811 81.2396 21.2345 81.4396 21.6278C81.6463 22.0145 81.9296 22.3145 82.2896 22.5278C82.6496 22.7345 83.0596 22.8378 83.5196 22.8378ZM93.9014 23.7578H92.7614L89.3314 18.5678V23.7578H88.1914V16.7978H89.3314L92.7614 21.9778V16.7978H93.9014V23.7578Z" fill="white"/>
<path d="M54.436 34.8178C54.22 34.4018 53.92 34.0898 53.536 33.8818C53.152 33.6658 52.708 33.5578 52.204 33.5578C51.652 33.5578 51.16 33.6818 50.728 33.9298C50.296 34.1778 49.956 34.5298 49.708 34.9858C49.468 35.4418 49.348 35.9698 49.348 36.5698C49.348 37.1698 49.468 37.7018 49.708 38.1658C49.956 38.6218 50.296 38.9738 50.728 39.2218C51.16 39.4698 51.652 39.5938 52.204 39.5938C52.948 39.5938 53.552 39.3858 54.016 38.9698C54.48 38.5538 54.764 37.9898 54.868 37.2778H51.736V36.1858H56.332V37.2538C56.244 37.9018 56.012 38.4978 55.636 39.0418C55.268 39.5858 54.784 40.0218 54.184 40.3498C53.592 40.6698 52.932 40.8298 52.204 40.8298C51.42 40.8298 50.704 40.6498 50.056 40.2898C49.408 39.9218 48.892 39.4138 48.508 38.7658C48.132 38.1178 47.944 37.3858 47.944 36.5698C47.944 35.7538 48.132 35.0218 48.508 34.3738C48.892 33.7258 49.408 33.2218 50.056 32.8618C50.712 32.4938 51.428 32.3098 52.204 32.3098C53.092 32.3098 53.88 32.5298 54.568 32.9698C55.264 33.4018 55.768 34.0178 56.08 34.8178H54.436ZM60.3093 40.8658C59.6853 40.8658 59.1213 40.7258 58.6173 40.4458C58.1133 40.1578 57.7173 39.7578 57.4293 39.2458C57.1413 38.7258 56.9973 38.1258 56.9973 37.4458C56.9973 36.7738 57.1453 36.1778 57.4413 35.6578C57.7373 35.1378 58.1413 34.7378 58.6533 34.4578C59.1653 34.1778 59.7373 34.0378 60.3693 34.0378C61.0013 34.0378 61.5733 34.1778 62.0853 34.4578C62.5973 34.7378 63.0013 35.1378 63.2973 35.6578C63.5933 36.1778 63.7413 36.7738 63.7413 37.4458C63.7413 38.1178 63.5893 38.7138 63.2853 39.2338C62.9813 39.7538 62.5653 40.1578 62.0373 40.4458C61.5173 40.7258 60.9413 40.8658 60.3093 40.8658ZM60.3093 39.6778C60.6613 39.6778 60.9893 39.5938 61.2933 39.4258C61.6053 39.2578 61.8573 39.0058 62.0493 38.6698C62.2413 38.3338 62.3373 37.9258 62.3373 37.4458C62.3373 36.9658 62.2453 36.5618 62.0613 36.2338C61.8773 35.8978 61.6333 35.6458 61.3293 35.4778C61.0253 35.3098 60.6973 35.2258 60.3453 35.2258C59.9933 35.2258 59.6653 35.3098 59.3613 35.4778C59.0653 35.6458 58.8293 35.8978 58.6533 36.2338C58.4773 36.5618 58.3893 36.9658 58.3893 37.4458C58.3893 38.1578 58.5693 38.7098 58.9293 39.1018C59.2973 39.4858 59.7573 39.6778 60.3093 39.6778ZM67.7216 40.8658C67.0976 40.8658 66.5336 40.7258 66.0296 40.4458C65.5256 40.1578 65.1296 39.7578 64.8416 39.2458C64.5536 38.7258 64.4096 38.1258 64.4096 37.4458C64.4096 36.7738 64.5576 36.1778 64.8536 35.6578C65.1496 35.1378 65.5536 34.7378 66.0656 34.4578C66.5776 34.1778 67.1496 34.0378 67.7816 34.0378C68.4136 34.0378 68.9856 34.1778 69.4976 34.4578C70.0096 34.7378 70.4136 35.1378 70.7096 35.6578C71.0056 36.1778 71.1536 36.7738 71.1536 37.4458C71.1536 38.1178 71.0016 38.7138 70.6976 39.2338C70.3936 39.7538 69.9776 40.1578 69.4496 40.4458C68.9296 40.7258 68.3536 40.8658 67.7216 40.8658ZM67.7216 39.6778C68.0736 39.6778 68.4016 39.5938 68.7056 39.4258C69.0176 39.2578 69.2696 39.0058 69.4616 38.6698C69.6536 38.3338 69.7496 37.9258 69.7496 37.4458C69.7496 36.9658 69.6576 36.5618 69.4736 36.2338C69.2896 35.8978 69.0456 35.6458 68.7416 35.4778C68.4376 35.3098 68.1096 35.2258 67.7576 35.2258C67.4056 35.2258 67.0776 35.3098 66.7736 35.4778C66.4776 35.6458 66.2416 35.8978 66.0656 36.2338C65.8896 36.5618 65.8016 36.9658 65.8016 37.4458C65.8016 38.1578 65.9816 38.7098 66.3416 39.1018C66.7096 39.4858 67.1696 39.6778 67.7216 39.6778ZM74.9299 34.0378C75.4419 34.0378 75.8939 34.1418 76.2859 34.3498C76.6859 34.5498 76.9979 34.8018 77.2219 35.1058V34.1458H78.6019V40.8658C78.6019 41.4738 78.4739 42.0138 78.2179 42.4858C77.9619 42.9658 77.5899 43.3418 77.1019 43.6138C76.6219 43.8858 76.0459 44.0218 75.3739 44.0218C74.4779 44.0218 73.7339 43.8098 73.1419 43.3858C72.5499 42.9698 72.2139 42.4018 72.1339 41.6818H73.4899C73.5939 42.0258 73.8139 42.3018 74.1499 42.5098C74.4939 42.7258 74.9019 42.8338 75.3739 42.8338C75.9259 42.8338 76.3699 42.6658 76.7059 42.3298C77.0499 41.9938 77.2219 41.5058 77.2219 40.8658V39.7618C76.9899 40.0738 76.6739 40.3378 76.2739 40.5538C75.8819 40.7618 75.4339 40.8658 74.9299 40.8658C74.3539 40.8658 73.8259 40.7218 73.3459 40.4338C72.8739 40.1378 72.4979 39.7298 72.2179 39.2098C71.9459 38.6818 71.8099 38.0858 71.8099 37.4218C71.8099 36.7578 71.9459 36.1698 72.2179 35.6578C72.4979 35.1458 72.8739 34.7498 73.3459 34.4698C73.8259 34.1818 74.3539 34.0378 74.9299 34.0378ZM77.2219 37.4458C77.2219 36.9898 77.1259 36.5938 76.9339 36.2578C76.7499 35.9218 76.5059 35.6658 76.2019 35.4898C75.8979 35.3138 75.5699 35.2258 75.2179 35.2258C74.8659 35.2258 74.5379 35.3138 74.2339 35.4898C73.9299 35.6578 73.6819 35.9098 73.4899 36.2458C73.3059 36.5738 73.2139 36.9658 73.2139 37.4218C73.2139 37.8778 73.3059 38.2778 73.4899 38.6218C73.6819 38.9658 73.9299 39.2298 74.2339 39.4138C74.5459 39.5898 74.8739 39.6778 75.2179 39.6778C75.5699 39.6778 75.8979 39.5898 76.2019 39.4138C76.5059 39.2378 76.7499 38.9818 76.9339 38.6458C77.1259 38.3018 77.2219 37.9018 77.2219 37.4458ZM81.5268 31.8778V40.7578H80.1588V31.8778H81.5268ZM89.1428 37.2898C89.1428 37.5378 89.1268 37.7618 89.0948 37.9618H84.0428C84.0828 38.4898 84.2788 38.9138 84.6308 39.2338C84.9828 39.5538 85.4148 39.7138 85.9268 39.7138C86.6628 39.7138 87.1828 39.4058 87.4868 38.7898H88.9628C88.7628 39.3978 88.3988 39.8978 87.8708 40.2898C87.3508 40.6738 86.7028 40.8658 85.9268 40.8658C85.2948 40.8658 84.7268 40.7258 84.2228 40.4458C83.7268 40.1578 83.3348 39.7578 83.0468 39.2458C82.7668 38.7258 82.6268 38.1258 82.6268 37.4458C82.6268 36.7658 82.7628 36.1698 83.0348 35.6578C83.3148 35.1378 83.7028 34.7378 84.1988 34.4578C84.7028 34.1778 85.2788 34.0378 85.9268 34.0378C86.5508 34.0378 87.1068 34.1738 87.5948 34.4458C88.0828 34.7178 88.4628 35.1018 88.7348 35.5978C89.0068 36.0858 89.1428 36.6498 89.1428 37.2898ZM87.7148 36.8578C87.7068 36.3538 87.5268 35.9498 87.1748 35.6458C86.8228 35.3418 86.3868 35.1898 85.8668 35.1898C85.3948 35.1898 84.9908 35.3418 84.6548 35.6458C84.3188 35.9418 84.1188 36.3458 84.0548 36.8578H87.7148ZM98.9583 34.9018C98.9583 35.3258 98.8583 35.7258 98.6582 36.1018C98.4583 36.4778 98.1383 36.7858 97.6983 37.0258C97.2582 37.2578 96.6942 37.3738 96.0063 37.3738H94.4942V40.7578H93.1262V32.4178H96.0063C96.6462 32.4178 97.1862 32.5298 97.6262 32.7538C98.0743 32.9698 98.4063 33.2658 98.6223 33.6418C98.8463 34.0178 98.9583 34.4378 98.9583 34.9018ZM96.0063 36.2578C96.5263 36.2578 96.9143 36.1418 97.1703 35.9098C97.4263 35.6698 97.5543 35.3338 97.5543 34.9018C97.5543 33.9898 97.0383 33.5338 96.0063 33.5338H94.4942V36.2578H96.0063ZM101.391 31.8778V40.7578H100.023V31.8778H101.391ZM102.491 37.4218C102.491 36.7578 102.627 36.1698 102.899 35.6578C103.179 35.1458 103.555 34.7498 104.027 34.4698C104.507 34.1818 105.035 34.0378 105.611 34.0378C106.131 34.0378 106.583 34.1418 106.967 34.3498C107.359 34.5498 107.671 34.8018 107.903 35.1058V34.1458H109.283V40.7578H107.903V39.7738C107.671 40.0858 107.355 40.3458 106.955 40.5538C106.555 40.7618 106.099 40.8658 105.587 40.8658C105.019 40.8658 104.499 40.7218 104.027 40.4338C103.555 40.1378 103.179 39.7298 102.899 39.2098C102.627 38.6818 102.491 38.0858 102.491 37.4218ZM107.903 37.4458C107.903 36.9898 107.807 36.5938 107.615 36.2578C107.431 35.9218 107.187 35.6658 106.883 35.4898C106.579 35.3138 106.251 35.2258 105.899 35.2258C105.547 35.2258 105.219 35.3138 104.915 35.4898C104.611 35.6578 104.363 35.9098 104.171 36.2458C103.987 36.5738 103.895 36.9658 103.895 37.4218C103.895 37.8778 103.987 38.2778 104.171 38.6218C104.363 38.9658 104.611 39.2298 104.915 39.4138C105.227 39.5898 105.555 39.6778 105.899 39.6778C106.251 39.6778 106.579 39.5898 106.883 39.4138C107.187 39.2378 107.431 38.9818 107.615 38.6458C107.807 38.3018 107.903 37.9018 107.903 37.4458ZM116.792 34.1458L112.736 43.8658H111.32L112.664 40.6498L110.06 34.1458H111.584L113.444 39.1858L115.376 34.1458H116.792Z" fill="white"/>
<defs>
<linearGradient id="paint0_linear_2237_8066" x1="32.7214" y1="17.6685" x2="17.8642" y2="30.6283" gradientUnits="userSpaceOnUse">
<stop stop-color="#00A0FF"/>
<stop offset="0.00657" stop-color="#00A1FF"/>
<stop offset="0.2601" stop-color="#00BEFF"/>
<stop offset="0.5122" stop-color="#00D2FF"/>
<stop offset="0.7604" stop-color="#00DFFF"/>
<stop offset="1" stop-color="#00E3FF"/>
</linearGradient>
<linearGradient id="paint1_linear_2237_8066" x1="42.1011" y1="27.7583" x2="23.241" y2="27.7583" gradientUnits="userSpaceOnUse">
<stop stop-color="#FFE000"/>
<stop offset="0.4087" stop-color="#FFBD00"/>
<stop offset="0.7754" stop-color="#FFA500"/>
<stop offset="1" stop-color="#FF9C00"/>
</linearGradient>
<linearGradient id="paint2_linear_2237_8066" x1="35.0807" y1="29.8086" x2="14.9331" y2="47.3831" gradientUnits="userSpaceOnUse">
<stop stop-color="#FF3A44"/>
<stop offset="1" stop-color="#C31162"/>
</linearGradient>
<linearGradient id="paint3_linear_2237_8066" x1="21.4173" y1="10.043" x2="30.4141" y2="17.8907" gradientUnits="userSpaceOnUse">
<stop stop-color="#32A071"/>
<stop offset="0.0685" stop-color="#2DA771"/>
<stop offset="0.4762" stop-color="#15CF74"/>
<stop offset="0.8009" stop-color="#06E775"/>
<stop offset="1" stop-color="#00F076"/>
</linearGradient>
</defs>
</svg>
