<svg width="189" height="56" viewBox="0 0 189 56" fill="none" xmlns="http://www.w3.org/2000/svg">
<rect x="0.65" y="0.65" width="187.7" height="54.7" rx="5.85" fill="black"/>
<rect x="0.65" y="0.65" width="187.7" height="54.7" rx="5.85" stroke="#A6A6A6" stroke-width="1.3"/>
<path d="M95.3906 30.4518C92.0978 30.4518 89.414 32.9564 89.414 36.406C89.414 39.8346 92.0978 42.3602 95.3906 42.3602C98.6848 42.3602 101.369 39.8346 101.369 36.406C101.367 32.9564 98.6834 30.4518 95.3906 30.4518ZM95.3906 40.0166C93.586 40.0166 92.0306 38.5284 92.0306 36.4074C92.0306 34.264 93.5874 32.7982 95.3906 32.7982C97.1952 32.7982 98.7506 34.264 98.7506 36.4074C98.7506 38.527 97.1952 40.0166 95.3906 40.0166ZM82.351 30.4518C79.0582 30.4518 76.3744 32.9564 76.3744 36.406C76.3744 39.8346 79.0582 42.3602 82.351 42.3602C85.6452 42.3602 88.329 39.8346 88.329 36.406C88.329 32.9564 85.6452 30.4518 82.351 30.4518ZM82.351 40.0166C80.5464 40.0166 78.991 38.5284 78.991 36.4074C78.991 34.264 80.5478 32.7982 82.351 32.7982C84.1556 32.7982 85.711 34.264 85.711 36.4074C85.7124 38.527 84.1556 40.0166 82.351 40.0166ZM66.8418 32.2802V34.8058H72.887C72.7064 36.2268 72.2332 37.2642 71.5108 37.9852C70.6316 38.8644 69.2554 39.8346 66.8418 39.8346C63.1206 39.8346 60.2114 36.8344 60.2114 33.1132C60.2114 29.392 63.1206 26.3918 66.8418 26.3918C68.8494 26.3918 70.3152 27.1814 71.3974 28.1964L73.1796 26.4142C71.6676 24.9708 69.6614 23.8662 66.8418 23.8662C61.7444 23.8662 57.459 28.0158 57.459 33.1132C57.459 38.2106 61.7444 42.3602 66.8418 42.3602C69.5928 42.3602 71.669 41.4572 73.2916 39.766C74.9604 38.0972 75.4798 35.7508 75.4798 33.8566C75.4798 33.2714 75.435 32.7296 75.344 32.2788H66.8418V32.2802ZM130.273 34.2416C129.777 32.9116 128.265 30.4518 125.176 30.4518C122.108 30.4518 119.559 32.8654 119.559 36.406C119.559 39.7436 122.086 42.3602 125.468 42.3602C128.197 42.3602 129.776 40.6914 130.431 39.7212L128.401 38.3674C127.725 39.36 126.8 40.0138 125.468 40.0138C124.138 40.0138 123.19 39.4048 122.581 38.2092L130.543 34.9164L130.273 34.2416ZM122.153 36.2268C122.086 33.9252 123.935 32.7534 125.267 32.7534C126.304 32.7534 127.183 33.2728 127.477 34.0162L122.153 36.2268ZM115.681 42.0004H118.296V24.499H115.681V42.0004ZM111.394 31.7832H111.304C110.718 31.0832 109.589 30.4518 108.17 30.4518C105.192 30.4518 102.463 33.0684 102.463 36.4298C102.463 39.7674 105.192 42.3616 108.17 42.3616C109.591 42.3616 110.718 41.7302 111.304 41.0092H111.394V41.866C111.394 44.1438 110.176 45.3618 108.215 45.3618C106.613 45.3618 105.62 44.2124 105.214 43.2422L102.937 44.19C103.59 45.7678 105.326 47.7082 108.215 47.7082C111.282 47.7082 113.876 45.9036 113.876 41.5048V30.8144H111.395V31.7832H111.394ZM108.395 40.0166C106.591 40.0166 105.08 38.5046 105.08 36.4298C105.08 34.3312 106.591 32.7982 108.395 32.7982C110.176 32.7982 111.575 34.3312 111.575 36.4298C111.575 38.5046 110.176 40.0166 108.395 40.0166ZM142.529 24.499H136.269V42.0004H138.88V35.37H142.527C145.422 35.37 148.27 33.2742 148.27 29.9352C148.27 26.5962 145.424 24.499 142.529 24.499ZM142.596 32.934H138.88V26.935H142.596C144.549 26.935 145.658 28.552 145.658 29.9352C145.658 31.2904 144.549 32.934 142.596 32.934ZM158.741 30.421C156.849 30.421 154.891 31.254 154.08 33.1006L156.398 34.068C156.894 33.1006 157.818 32.7842 158.785 32.7842C160.136 32.7842 161.51 33.5948 161.532 35.0354V35.216C161.059 34.9458 160.045 34.5412 158.808 34.5412C156.309 34.5412 153.764 35.9146 153.764 38.4808C153.764 40.823 155.813 42.3308 158.109 42.3308C159.865 42.3308 160.834 41.5426 161.441 40.6186H161.531V41.9696H164.054V35.2594C164.055 32.1542 161.734 30.421 158.741 30.421ZM158.424 40.0124C157.57 40.0124 156.376 39.584 156.376 38.5256C156.376 37.1746 157.863 36.6566 159.147 36.6566C160.293 36.6566 160.835 36.9044 161.532 37.2418C161.329 38.8644 159.933 40.0124 158.424 40.0124ZM173.24 30.8032L170.246 38.3912H170.156L167.048 30.8032H164.234L168.895 41.4082L166.238 47.3078H168.962L176.145 30.8032H173.24ZM149.712 42.0004H152.323V24.499H149.712V42.0004Z" fill="white"/>
<path d="M66.385 14.34C66.385 15.5132 66.0378 16.447 65.342 17.1442C64.5524 17.973 63.522 18.3874 62.2564 18.3874C61.044 18.3874 60.0122 17.9674 59.1652 17.1274C58.3168 16.286 57.8926 15.2444 57.8926 14.0012C57.8926 12.7566 58.3168 11.715 59.1652 10.875C60.0122 10.0336 61.044 9.61358 62.2564 9.61358C62.8584 9.61358 63.4338 9.73117 63.9798 9.96497C64.5272 10.2002 64.9654 10.5124 65.293 10.903L64.5552 11.6422C63.9994 10.9772 63.2336 10.6454 62.255 10.6454C61.3702 10.6454 60.6058 10.9562 59.9604 11.5778C59.315 12.1994 58.993 13.0072 58.993 13.9998C58.993 14.9924 59.315 15.8002 59.9604 16.4218C60.6058 17.0434 61.3702 17.3542 62.255 17.3542C63.193 17.3542 63.9756 17.042 64.6014 16.4162C65.0074 16.0088 65.2426 15.4418 65.3056 14.7152H62.255V13.7058H66.3248C66.3668 13.9256 66.385 14.137 66.385 14.34Z" fill="white"/>
<path d="M72.8391 10.8317H69.0143V13.4945H72.4639V14.5039H69.0143V17.1667H72.8391V18.1999H67.9349V9.79985H72.8391V10.8317Z" fill="white"/>
<path d="M77.3903 18.1999H76.311V10.8317H73.9646V9.79985H79.7367V10.8317H77.3903V18.1999Z" fill="white"/>
<path d="M83.9129 18.1999V9.79985H84.9923V18.1999H83.9129Z" fill="white"/>
<path d="M89.7791 18.1999H88.6997V10.8317H86.3533V9.79985H92.1255V10.8317H89.7791V18.1999Z" fill="white"/>
<path d="M103.052 17.1148C102.226 17.9632 101.2 18.3874 99.9722 18.3874C98.7444 18.3874 97.7182 17.9632 96.8936 17.1148C96.0676 16.2664 95.656 15.2276 95.656 13.9998C95.656 12.772 96.0676 11.7332 96.8936 10.8848C97.7182 10.0364 98.7444 9.61084 99.9722 9.61084C101.193 9.61084 102.218 10.0378 103.047 10.8904C103.875 11.743 104.29 12.779 104.29 13.9998C104.29 15.2276 103.877 16.2664 103.052 17.1148ZM97.6902 16.4106C98.3118 17.0406 99.072 17.3542 99.9722 17.3542C100.872 17.3542 101.634 17.0392 102.254 16.4106C102.876 15.7806 103.188 14.977 103.188 13.9998C103.188 13.0226 102.876 12.219 102.254 11.589C101.634 10.959 100.872 10.6454 99.9722 10.6454C99.072 10.6454 98.3118 10.9604 97.6902 11.589C97.07 12.219 96.7578 13.0226 96.7578 13.9998C96.7578 14.977 97.07 15.7806 97.6902 16.4106Z" fill="white"/>
<path d="M105.805 18.1999V9.79985H107.118L111.2 16.3337H111.246L111.2 14.7153V9.79985H112.28V18.1999H111.153L106.881 11.3483H106.835L106.881 12.9667V18.1999H105.805Z" fill="white"/>
<path d="M66.385 14.34C66.385 15.5132 66.0378 16.447 65.342 17.1442C64.5524 17.973 63.522 18.3874 62.2564 18.3874C61.044 18.3874 60.0122 17.9674 59.1652 17.1274C58.3168 16.286 57.8926 15.2444 57.8926 14.0012C57.8926 12.7566 58.3168 11.715 59.1652 10.875C60.0122 10.0336 61.044 9.61358 62.2564 9.61358C62.8584 9.61358 63.4338 9.73117 63.9798 9.96497C64.5272 10.2002 64.9654 10.5124 65.293 10.903L64.5552 11.6422C63.9994 10.9772 63.2336 10.6454 62.255 10.6454C61.3702 10.6454 60.6058 10.9562 59.9604 11.5778C59.315 12.1994 58.993 13.0072 58.993 13.9998C58.993 14.9924 59.315 15.8002 59.9604 16.4218C60.6058 17.0434 61.3702 17.3542 62.255 17.3542C63.193 17.3542 63.9756 17.042 64.6014 16.4162C65.0074 16.0088 65.2426 15.4418 65.3056 14.7152H62.255V13.7058H66.3248C66.3668 13.9256 66.385 14.137 66.385 14.34Z" stroke="white" stroke-width="0.26" stroke-miterlimit="10"/>
<path d="M72.8391 10.8317H69.0143V13.4945H72.4639V14.5039H69.0143V17.1667H72.8391V18.1999H67.9349V9.79985H72.8391V10.8317Z" stroke="white" stroke-width="0.26" stroke-miterlimit="10"/>
<path d="M77.3903 18.1999H76.311V10.8317H73.9646V9.79985H79.7367V10.8317H77.3903V18.1999Z" stroke="white" stroke-width="0.26" stroke-miterlimit="10"/>
<path d="M83.9129 18.1999V9.79985H84.9923V18.1999H83.9129Z" stroke="white" stroke-width="0.26" stroke-miterlimit="10"/>
<path d="M89.7791 18.1999H88.6997V10.8317H86.3533V9.79985H92.1255V10.8317H89.7791V18.1999Z" stroke="white" stroke-width="0.26" stroke-miterlimit="10"/>
<path d="M103.052 17.1148C102.226 17.9632 101.2 18.3874 99.9722 18.3874C98.7444 18.3874 97.7182 17.9632 96.8936 17.1148C96.0676 16.2664 95.656 15.2276 95.656 13.9998C95.656 12.772 96.0676 11.7332 96.8936 10.8848C97.7182 10.0364 98.7444 9.61084 99.9722 9.61084C101.193 9.61084 102.218 10.0378 103.047 10.8904C103.875 11.743 104.29 12.779 104.29 13.9998C104.29 15.2276 103.877 16.2664 103.052 17.1148ZM97.6902 16.4106C98.3118 17.0406 99.072 17.3542 99.9722 17.3542C100.872 17.3542 101.634 17.0392 102.254 16.4106C102.876 15.7806 103.188 14.977 103.188 13.9998C103.188 13.0226 102.876 12.219 102.254 11.589C101.634 10.959 100.872 10.6454 99.9722 10.6454C99.072 10.6454 98.3118 10.9604 97.6902 11.589C97.07 12.219 96.7578 13.0226 96.7578 13.9998C96.7578 14.977 97.07 15.7806 97.6902 16.4106Z" stroke="white" stroke-width="0.26" stroke-miterlimit="10"/>
<path d="M105.805 18.1999V9.79985H107.118L111.2 16.3337H111.246L111.2 14.7153V9.79985H112.28V18.1999H111.153L106.881 11.3483H106.835L106.881 12.9667V18.1999H105.805Z" stroke="white" stroke-width="0.26" stroke-miterlimit="10"/>
<g filter="url(#filter0_ii_1887_3095)">
<path d="M14.6101 10.5534C14.2027 10.9846 13.9619 11.6538 13.9619 12.5204V43.4828C13.9619 44.3508 14.2027 45.0186 14.6101 45.4498L14.7137 45.5506L32.0583 28.206V28.0016V27.7972L14.7137 10.4512L14.6101 10.5534Z" fill="url(#paint0_linear_1887_3095)"/>
<path d="M37.8392 33.9893L32.0586 28.2059V28.0015V27.7971L37.8406 22.0151L37.9708 22.0893L44.821 25.9813C46.7768 27.0929 46.7768 28.9115 44.821 30.0245L37.9708 33.9165L37.8392 33.9893Z" fill="url(#paint1_linear_1887_3095)"/>
<g filter="url(#filter1_i_1887_3095)">
<path d="M37.9708 33.9151L32.0572 28.0015L14.6104 45.4497C15.2544 46.1329 16.3198 46.2169 17.5196 45.5365L37.9708 33.9151Z" fill="url(#paint2_linear_1887_3095)"/>
</g>
<path d="M37.9708 22.0881L17.5196 10.4681C16.3198 9.78626 15.2544 9.87166 14.6104 10.5549L32.0585 28.0031L37.9708 22.0881Z" fill="url(#paint3_linear_1887_3095)"/>
</g>
<defs>
<filter id="filter0_ii_1887_3095" x="13.9619" y="9.99756" width="32.3262" height="36.0088" filterUnits="userSpaceOnUse" color-interpolation-filters="sRGB">
<feFlood flood-opacity="0" result="BackgroundImageFix"/>
<feBlend mode="normal" in="SourceGraphic" in2="BackgroundImageFix" result="shape"/>
<feColorMatrix in="SourceAlpha" type="matrix" values="0 0 0 0 0 0 0 0 0 0 0 0 0 0 0 0 0 0 127 0" result="hardAlpha"/>
<feOffset dy="-0.195"/>
<feComposite in2="hardAlpha" operator="arithmetic" k2="-1" k3="1"/>
<feColorMatrix type="matrix" values="0 0 0 0 0 0 0 0 0 0 0 0 0 0 0 0 0 0 0.12 0"/>
<feBlend mode="normal" in2="shape" result="effect1_innerShadow_1887_3095"/>
<feColorMatrix in="SourceAlpha" type="matrix" values="0 0 0 0 0 0 0 0 0 0 0 0 0 0 0 0 0 0 127 0" result="hardAlpha"/>
<feOffset dy="0.195"/>
<feComposite in2="hardAlpha" operator="arithmetic" k2="-1" k3="1"/>
<feColorMatrix type="matrix" values="0 0 0 0 1 0 0 0 0 1 0 0 0 0 1 0 0 0 0.25 0"/>
<feBlend mode="normal" in2="effect1_innerShadow_1887_3095" result="effect2_innerShadow_1887_3095"/>
</filter>
<filter id="filter1_i_1887_3095" x="14.6104" y="28.0015" width="23.3604" height="18.0049" filterUnits="userSpaceOnUse" color-interpolation-filters="sRGB">
<feFlood flood-opacity="0" result="BackgroundImageFix"/>
<feBlend mode="normal" in="SourceGraphic" in2="BackgroundImageFix" result="shape"/>
<feColorMatrix in="SourceAlpha" type="matrix" values="0 0 0 0 0 0 0 0 0 0 0 0 0 0 0 0 0 0 127 0" result="hardAlpha"/>
<feOffset dy="-0.195"/>
<feComposite in2="hardAlpha" operator="arithmetic" k2="-1" k3="1"/>
<feColorMatrix type="matrix" values="0 0 0 0 0 0 0 0 0 0 0 0 0 0 0 0 0 0 0.08 0"/>
<feBlend mode="normal" in2="shape" result="effect1_innerShadow_1887_3095"/>
</filter>
<linearGradient id="paint0_linear_1887_3095" x1="30.5208" y1="12.1928" x2="7.02604" y2="35.6876" gradientUnits="userSpaceOnUse">
<stop stop-color="#00A0FF"/>
<stop offset="0.0066" stop-color="#00A1FF"/>
<stop offset="0.2601" stop-color="#00BEFF"/>
<stop offset="0.5122" stop-color="#00D2FF"/>
<stop offset="0.7604" stop-color="#00DFFF"/>
<stop offset="1" stop-color="#00E3FF"/>
</linearGradient>
<linearGradient id="paint1_linear_1887_3095" x1="47.3669" y1="28.0015" x2="13.4926" y2="28.0015" gradientUnits="userSpaceOnUse">
<stop stop-color="#FFE000"/>
<stop offset="0.4087" stop-color="#FFBD00"/>
<stop offset="0.7754" stop-color="#FFA500"/>
<stop offset="1" stop-color="#FF9C00"/>
</linearGradient>
<linearGradient id="paint2_linear_1887_3095" x1="34.7593" y1="31.2129" x2="2.8974" y2="63.0748" gradientUnits="userSpaceOnUse">
<stop stop-color="#FF3A44"/>
<stop offset="1" stop-color="#C31162"/>
</linearGradient>
<linearGradient id="paint3_linear_1887_3095" x1="10.2163" y1="0.247784" x2="24.4435" y2="14.475" gradientUnits="userSpaceOnUse">
<stop stop-color="#32A071"/>
<stop offset="0.0685" stop-color="#2DA771"/>
<stop offset="0.4762" stop-color="#15CF74"/>
<stop offset="0.8009" stop-color="#06E775"/>
<stop offset="1" stop-color="#00F076"/>
</linearGradient>
</defs>
</svg>
