<svg width="365" height="82" viewBox="0 0 365 82" fill="none" xmlns="http://www.w3.org/2000/svg">
<rect width="365" height="82" rx="10" fill="#009028"/>
<path d="M105.376 21V12.6H107.872L110.152 20.136H110.344V12.6H111.628V21H109.132L106.852 13.452H106.66V21H105.376ZM116.128 21.168C115.528 21.168 115.004 21.044 114.556 20.796C114.108 20.54 113.756 20.184 113.5 19.728C113.252 19.264 113.128 18.728 113.128 18.12V17.976C113.128 17.36 113.252 16.824 113.5 16.368C113.748 15.904 114.092 15.548 114.532 15.3C114.98 15.044 115.496 14.916 116.08 14.916C116.648 14.916 117.144 15.044 117.568 15.3C118 15.548 118.336 15.896 118.576 16.344C118.816 16.792 118.936 17.316 118.936 17.916V18.384H114.388C114.404 18.904 114.576 19.32 114.904 19.632C115.24 19.936 115.656 20.088 116.152 20.088C116.616 20.088 116.964 19.984 117.196 19.776C117.436 19.568 117.62 19.328 117.748 19.056L118.768 19.584C118.656 19.808 118.492 20.044 118.276 20.292C118.068 20.54 117.792 20.748 117.448 20.916C117.104 21.084 116.664 21.168 116.128 21.168ZM114.4 17.436H117.676C117.644 16.988 117.484 16.64 117.196 16.392C116.908 16.136 116.532 16.008 116.068 16.008C115.604 16.008 115.224 16.136 114.928 16.392C114.64 16.64 114.464 16.988 114.4 17.436ZM119.533 21L121.789 18.012L119.581 15.084H121.033L122.581 17.208H122.773L124.321 15.084H125.785L123.565 18.012L125.821 21H124.345L122.773 18.828H122.581L121.009 21H119.533ZM129.37 21C129.01 21 128.722 20.892 128.506 20.676C128.298 20.46 128.194 20.172 128.194 19.812V16.128H126.562V15.084H128.194V13.128H129.43V15.084H131.194V16.128H129.43V19.596C129.43 19.836 129.542 19.956 129.766 19.956H131.002V21H129.37ZM138.585 21.168C137.985 21.168 137.449 21.04 136.977 20.784C136.505 20.52 136.133 20.136 135.861 19.632C135.589 19.128 135.453 18.512 135.453 17.784V15.816C135.453 14.72 135.753 13.884 136.353 13.308C136.953 12.724 137.765 12.432 138.789 12.432C139.797 12.432 140.573 12.708 141.117 13.26C141.661 13.804 141.933 14.536 141.933 15.456V15.516H140.649V15.42C140.649 15.076 140.581 14.768 140.445 14.496C140.309 14.216 140.105 13.996 139.833 13.836C139.561 13.676 139.213 13.596 138.789 13.596C138.149 13.596 137.649 13.792 137.289 14.184C136.929 14.568 136.749 15.104 136.749 15.792V17.808C136.749 18.488 136.929 19.028 137.289 19.428C137.649 19.82 138.153 20.016 138.801 20.016C139.441 20.016 139.909 19.84 140.205 19.488C140.501 19.136 140.649 18.68 140.649 18.12V17.964H138.393V16.848H141.933V21H140.733V20.148H140.541C140.469 20.3 140.361 20.456 140.217 20.616C140.081 20.776 139.881 20.908 139.617 21.012C139.361 21.116 139.017 21.168 138.585 21.168ZM145.475 21.168C145.051 21.168 144.671 21.096 144.335 20.952C144.007 20.808 143.743 20.596 143.543 20.316C143.351 20.036 143.255 19.696 143.255 19.296C143.255 18.888 143.351 18.552 143.543 18.288C143.743 18.016 144.011 17.812 144.347 17.676C144.691 17.54 145.079 17.472 145.511 17.472H147.311V17.088C147.311 16.744 147.207 16.468 146.999 16.26C146.791 16.052 146.471 15.948 146.039 15.948C145.615 15.948 145.291 16.048 145.067 16.248C144.843 16.448 144.695 16.708 144.623 17.028L143.471 16.656C143.567 16.336 143.719 16.048 143.927 15.792C144.143 15.528 144.427 15.316 144.779 15.156C145.131 14.996 145.555 14.916 146.051 14.916C146.819 14.916 147.423 15.112 147.863 15.504C148.303 15.896 148.523 16.452 148.523 17.172V19.608C148.523 19.848 148.635 19.968 148.859 19.968H149.363V21H148.439C148.159 21 147.931 20.928 147.755 20.784C147.579 20.64 147.491 20.444 147.491 20.196V20.16H147.311C147.247 20.28 147.151 20.42 147.023 20.58C146.895 20.74 146.707 20.88 146.459 21C146.211 21.112 145.883 21.168 145.475 21.168ZM145.655 20.148C146.151 20.148 146.551 20.008 146.855 19.728C147.159 19.44 147.311 19.048 147.311 18.552V18.432H145.583C145.255 18.432 144.991 18.504 144.791 18.648C144.591 18.784 144.491 18.988 144.491 19.26C144.491 19.532 144.595 19.748 144.803 19.908C145.011 20.068 145.295 20.148 145.655 20.148ZM150.564 21V15.084H151.776V15.78H151.968C152.08 15.572 152.26 15.388 152.508 15.228C152.756 15.068 153.092 14.988 153.516 14.988C153.956 14.988 154.308 15.08 154.572 15.264C154.844 15.44 155.048 15.668 155.184 15.948H155.376C155.512 15.676 155.708 15.448 155.964 15.264C156.228 15.08 156.6 14.988 157.08 14.988C157.464 14.988 157.804 15.068 158.1 15.228C158.396 15.38 158.632 15.612 158.808 15.924C158.984 16.228 159.072 16.608 159.072 17.064V21H157.836V17.16C157.836 16.8 157.736 16.524 157.536 16.332C157.344 16.132 157.068 16.032 156.708 16.032C156.324 16.032 156.016 16.156 155.784 16.404C155.552 16.652 155.436 17.008 155.436 17.472V21H154.2V17.16C154.2 16.8 154.1 16.524 153.9 16.332C153.708 16.132 153.432 16.032 153.072 16.032C152.688 16.032 152.38 16.156 152.148 16.404C151.916 16.652 151.8 17.008 151.8 17.472V21H150.564ZM163.565 21.168C162.965 21.168 162.441 21.044 161.993 20.796C161.545 20.54 161.193 20.184 160.937 19.728C160.689 19.264 160.565 18.728 160.565 18.12V17.976C160.565 17.36 160.689 16.824 160.937 16.368C161.185 15.904 161.529 15.548 161.969 15.3C162.417 15.044 162.933 14.916 163.517 14.916C164.085 14.916 164.581 15.044 165.005 15.3C165.437 15.548 165.773 15.896 166.013 16.344C166.253 16.792 166.373 17.316 166.373 17.916V18.384H161.825C161.841 18.904 162.013 19.32 162.341 19.632C162.677 19.936 163.093 20.088 163.589 20.088C164.053 20.088 164.401 19.984 164.633 19.776C164.873 19.568 165.057 19.328 165.185 19.056L166.205 19.584C166.093 19.808 165.929 20.044 165.713 20.292C165.505 20.54 165.229 20.748 164.885 20.916C164.541 21.084 164.101 21.168 163.565 21.168ZM161.837 17.436H165.113C165.081 16.988 164.921 16.64 164.633 16.392C164.345 16.136 163.969 16.008 163.505 16.008C163.041 16.008 162.661 16.136 162.365 16.392C162.077 16.64 161.901 16.988 161.837 17.436ZM168.605 21.168C168.325 21.168 168.089 21.076 167.897 20.892C167.713 20.708 167.621 20.472 167.621 20.184C167.621 19.896 167.713 19.664 167.897 19.488C168.089 19.304 168.325 19.212 168.605 19.212C168.885 19.212 169.117 19.304 169.301 19.488C169.493 19.672 169.589 19.904 169.589 20.184C169.589 20.472 169.493 20.708 169.301 20.892C169.117 21.076 168.885 21.168 168.605 21.168ZM168.605 16.884C168.325 16.884 168.089 16.792 167.897 16.608C167.713 16.424 167.621 16.188 167.621 15.9C167.621 15.612 167.713 15.38 167.897 15.204C168.089 15.02 168.325 14.928 168.605 14.928C168.885 14.928 169.117 15.02 169.301 15.204C169.493 15.388 169.589 15.62 169.589 15.9C169.589 16.188 169.493 16.424 169.301 16.608C169.117 16.792 168.885 16.884 168.605 16.884ZM175.864 21V13.776H173.284V12.6H179.74V13.776H177.16V21H175.864ZM182.563 21.168C181.971 21.168 181.443 21.048 180.979 20.808C180.523 20.56 180.163 20.208 179.899 19.752C179.635 19.296 179.503 18.756 179.503 18.132V17.952C179.503 17.328 179.635 16.792 179.899 16.344C180.163 15.888 180.523 15.536 180.979 15.288C181.443 15.04 181.971 14.916 182.563 14.916C183.155 14.916 183.683 15.04 184.147 15.288C184.611 15.536 184.975 15.888 185.239 16.344C185.503 16.792 185.635 17.328 185.635 17.952V18.132C185.635 18.756 185.503 19.296 185.239 19.752C184.975 20.208 184.611 20.56 184.147 20.808C183.683 21.048 183.155 21.168 182.563 21.168ZM182.563 20.064C183.107 20.064 183.547 19.892 183.883 19.548C184.227 19.196 184.399 18.712 184.399 18.096V17.988C184.399 17.372 184.231 16.892 183.895 16.548C183.559 16.196 183.115 16.02 182.563 16.02C182.027 16.02 181.587 16.196 181.243 16.548C180.907 16.892 180.739 17.372 180.739 17.988V18.096C180.739 18.712 180.907 19.196 181.243 19.548C181.587 19.892 182.027 20.064 182.563 20.064ZM187.174 21V15.084H188.386V15.78H188.578C188.69 15.572 188.87 15.388 189.118 15.228C189.366 15.068 189.702 14.988 190.126 14.988C190.566 14.988 190.918 15.08 191.182 15.264C191.454 15.44 191.658 15.668 191.794 15.948H191.986C192.122 15.676 192.318 15.448 192.574 15.264C192.838 15.08 193.21 14.988 193.69 14.988C194.074 14.988 194.414 15.068 194.71 15.228C195.006 15.38 195.242 15.612 195.418 15.924C195.594 16.228 195.682 16.608 195.682 17.064V21H194.446V17.16C194.446 16.8 194.346 16.524 194.146 16.332C193.954 16.132 193.678 16.032 193.318 16.032C192.934 16.032 192.626 16.156 192.394 16.404C192.162 16.652 192.046 17.008 192.046 17.472V21H190.81V17.16C190.81 16.8 190.71 16.524 190.51 16.332C190.318 16.132 190.042 16.032 189.682 16.032C189.298 16.032 188.99 16.156 188.758 16.404C188.526 16.652 188.41 17.008 188.41 17.472V21H187.174ZM200.235 21.168C199.643 21.168 199.115 21.048 198.651 20.808C198.195 20.56 197.835 20.208 197.571 19.752C197.307 19.296 197.175 18.756 197.175 18.132V17.952C197.175 17.328 197.307 16.792 197.571 16.344C197.835 15.888 198.195 15.536 198.651 15.288C199.115 15.04 199.643 14.916 200.235 14.916C200.827 14.916 201.355 15.04 201.819 15.288C202.283 15.536 202.647 15.888 202.911 16.344C203.175 16.792 203.307 17.328 203.307 17.952V18.132C203.307 18.756 203.175 19.296 202.911 19.752C202.647 20.208 202.283 20.56 201.819 20.808C201.355 21.048 200.827 21.168 200.235 21.168ZM200.235 20.064C200.779 20.064 201.219 19.892 201.555 19.548C201.899 19.196 202.071 18.712 202.071 18.096V17.988C202.071 17.372 201.903 16.892 201.567 16.548C201.231 16.196 200.787 16.02 200.235 16.02C199.699 16.02 199.259 16.196 198.915 16.548C198.579 16.892 198.411 17.372 198.411 17.988V18.096C198.411 18.712 198.579 19.196 198.915 19.548C199.259 19.892 199.699 20.064 200.235 20.064ZM204.846 21V15.084H206.058V15.78H206.25C206.346 15.532 206.498 15.352 206.706 15.24C206.922 15.12 207.186 15.06 207.498 15.06H208.206V16.176H207.45C207.05 16.176 206.722 16.288 206.466 16.512C206.21 16.728 206.082 17.064 206.082 17.52V21H204.846ZM209.486 21V15.084H210.698V15.78H210.89C210.986 15.532 211.138 15.352 211.346 15.24C211.562 15.12 211.826 15.06 212.138 15.06H212.846V16.176H212.09C211.69 16.176 211.362 16.288 211.106 16.512C210.85 16.728 210.722 17.064 210.722 17.52V21H209.486ZM216.688 21.168C216.096 21.168 215.568 21.048 215.104 20.808C214.648 20.56 214.288 20.208 214.024 19.752C213.76 19.296 213.628 18.756 213.628 18.132V17.952C213.628 17.328 213.76 16.792 214.024 16.344C214.288 15.888 214.648 15.536 215.104 15.288C215.568 15.04 216.096 14.916 216.688 14.916C217.28 14.916 217.808 15.04 218.272 15.288C218.736 15.536 219.1 15.888 219.364 16.344C219.628 16.792 219.76 17.328 219.76 17.952V18.132C219.76 18.756 219.628 19.296 219.364 19.752C219.1 20.208 218.736 20.56 218.272 20.808C217.808 21.048 217.28 21.168 216.688 21.168ZM216.688 20.064C217.232 20.064 217.672 19.892 218.008 19.548C218.352 19.196 218.524 18.712 218.524 18.096V17.988C218.524 17.372 218.356 16.892 218.02 16.548C217.684 16.196 217.24 16.02 216.688 16.02C216.152 16.02 215.712 16.196 215.368 16.548C215.032 16.892 214.864 17.372 214.864 17.988V18.096C214.864 18.712 215.032 19.196 215.368 19.548C215.712 19.892 216.152 20.064 216.688 20.064ZM221.876 21L220.868 15.084H222.104L222.848 20.172H223.04L224.072 15.084H226.076L227.096 20.172H227.288L228.032 15.084H229.268L228.26 21H226.184L225.164 15.924H224.972L223.952 21H221.876ZM230.428 22.632V21.924H230.836C231.164 21.924 231.328 21.76 231.328 21.432V21.048H231.148C230.868 21.048 230.636 20.964 230.452 20.796C230.268 20.628 230.176 20.416 230.176 20.16C230.176 19.88 230.268 19.656 230.452 19.488C230.636 19.312 230.868 19.224 231.148 19.224C231.428 19.224 231.656 19.316 231.832 19.5C232.016 19.676 232.108 19.908 232.108 20.196V21.444C232.108 22.236 231.712 22.632 230.92 22.632H230.428ZM239.141 21.168C238.493 21.168 237.925 21.072 237.437 20.88C236.957 20.688 236.581 20.412 236.309 20.052C236.045 19.684 235.913 19.256 235.913 18.768V18.636C235.913 18.236 235.989 17.908 236.141 17.652C236.301 17.388 236.493 17.184 236.717 17.04C236.949 16.888 237.165 16.788 237.365 16.74V16.548C237.165 16.492 236.961 16.392 236.753 16.248C236.545 16.096 236.373 15.9 236.237 15.66C236.109 15.412 236.045 15.116 236.045 14.772V14.64C236.045 14.192 236.173 13.804 236.429 13.476C236.693 13.148 237.057 12.892 237.521 12.708C237.985 12.524 238.525 12.432 239.141 12.432C239.749 12.432 240.285 12.524 240.749 12.708C241.213 12.892 241.573 13.148 241.829 13.476C242.093 13.804 242.225 14.192 242.225 14.64V14.772C242.225 15.116 242.157 15.412 242.021 15.66C241.893 15.9 241.729 16.096 241.529 16.248C241.329 16.392 241.125 16.492 240.917 16.548V16.74C241.125 16.788 241.341 16.888 241.565 17.04C241.789 17.184 241.977 17.388 242.129 17.652C242.281 17.908 242.357 18.236 242.357 18.636V18.768C242.357 19.256 242.221 19.684 241.949 20.052C241.685 20.412 241.309 20.688 240.821 20.88C240.341 21.072 239.781 21.168 239.141 21.168ZM239.141 20.04C239.749 20.04 240.225 19.924 240.569 19.692C240.921 19.452 241.097 19.12 241.097 18.696V18.6C241.097 18.168 240.925 17.836 240.581 17.604C240.245 17.364 239.765 17.244 239.141 17.244C238.517 17.244 238.033 17.364 237.689 17.604C237.345 17.836 237.173 18.168 237.173 18.6V18.696C237.173 19.12 237.345 19.452 237.689 19.692C238.041 19.924 238.525 20.04 239.141 20.04ZM239.141 16.116C239.709 16.116 240.153 16.008 240.473 15.792C240.801 15.576 240.965 15.272 240.965 14.88V14.784C240.965 14.392 240.801 14.092 240.473 13.884C240.145 13.668 239.701 13.56 239.141 13.56C238.573 13.56 238.125 13.668 237.797 13.884C237.469 14.092 237.305 14.392 237.305 14.784V14.88C237.305 15.272 237.465 15.576 237.785 15.792C238.113 16.008 238.565 16.116 239.141 16.116ZM243.681 21V12.6H247.017C247.529 12.6 247.985 12.704 248.385 12.912C248.793 13.112 249.109 13.4 249.333 13.776C249.565 14.144 249.681 14.588 249.681 15.108V15.264C249.681 15.784 249.561 16.232 249.321 16.608C249.089 16.984 248.773 17.272 248.373 17.472C247.973 17.672 247.521 17.772 247.017 17.772H244.977V21H243.681ZM244.977 16.596H246.885C247.341 16.596 247.705 16.476 247.977 16.236C248.249 15.996 248.385 15.668 248.385 15.252V15.132C248.385 14.708 248.249 14.376 247.977 14.136C247.705 13.896 247.341 13.776 246.885 13.776H244.977V16.596ZM250.911 21V12.6H253.347L255.183 20.136H255.375L257.211 12.6H259.647V21H258.387V13.512H258.195L256.371 21H254.187L252.363 13.512H252.171V21H250.911Z" fill="white"/>
<rect x="15.5" y="52.5" width="60" height="23" rx="11.5" stroke="white"/>
<path d="M37.4685 66.112C37.0471 66.112 36.6738 66.0373 36.3485 65.888C36.0231 65.7387 35.7671 65.52 35.5805 65.232C35.3991 64.9387 35.3085 64.584 35.3085 64.168V63.968H36.1645V64.168C36.1645 64.5627 36.2818 64.8587 36.5165 65.056C36.7565 65.2533 37.0738 65.352 37.4685 65.352C37.8685 65.352 38.1698 65.2693 38.3725 65.104C38.5751 64.9333 38.6765 64.7147 38.6765 64.448C38.6765 64.272 38.6285 64.128 38.5325 64.016C38.4365 63.904 38.3005 63.816 38.1245 63.752C37.9485 63.6827 37.7378 63.6187 37.4925 63.56L37.1965 63.488C36.8391 63.4027 36.5271 63.2987 36.2605 63.176C35.9991 63.048 35.7965 62.88 35.6525 62.672C35.5085 62.464 35.4365 62.1973 35.4365 61.872C35.4365 61.5413 35.5165 61.2587 35.6765 61.024C35.8418 60.7893 36.0685 60.608 36.3565 60.48C36.6445 60.352 36.9831 60.288 37.3725 60.288C37.7618 60.288 38.1085 60.3547 38.4125 60.488C38.7218 60.6213 38.9645 60.8187 39.1405 61.08C39.3165 61.3413 39.4045 61.6693 39.4045 62.064V62.352H38.5485V62.064C38.5485 61.824 38.4978 61.6293 38.3965 61.48C38.3005 61.3307 38.1645 61.2213 37.9885 61.152C37.8125 61.0827 37.6071 61.048 37.3725 61.048C37.0311 61.048 36.7645 61.12 36.5725 61.264C36.3858 61.4027 36.2925 61.5973 36.2925 61.848C36.2925 62.0187 36.3325 62.16 36.4125 62.272C36.4978 62.3787 36.6205 62.4667 36.7805 62.536C36.9405 62.6053 37.1405 62.6667 37.3805 62.72L37.6765 62.792C38.0391 62.872 38.3591 62.976 38.6365 63.104C38.9138 63.2267 39.1325 63.3947 39.2925 63.608C39.4525 63.8213 39.5325 64.096 39.5325 64.432C39.5325 64.768 39.4471 65.0613 39.2765 65.312C39.1111 65.5627 38.8738 65.76 38.5645 65.904C38.2551 66.0427 37.8898 66.112 37.4685 66.112ZM40.4635 66V60.4H41.2875V62.616H41.4155C41.4688 62.5147 41.5435 62.416 41.6395 62.32C41.7408 62.224 41.8715 62.1467 42.0315 62.088C42.1968 62.024 42.4048 61.992 42.6555 61.992C42.9541 61.992 43.2181 62.0587 43.4475 62.192C43.6821 62.3253 43.8661 62.5147 43.9995 62.76C44.1328 63 44.1995 63.2907 44.1995 63.632V66H43.3755V63.696C43.3755 63.3547 43.2901 63.104 43.1195 62.944C42.9488 62.7787 42.7141 62.696 42.4155 62.696C42.0741 62.696 41.7995 62.808 41.5915 63.032C41.3888 63.256 41.2875 63.5813 41.2875 64.008V66H40.4635ZM46.6093 66.112C46.3267 66.112 46.0733 66.064 45.8493 65.968C45.6307 65.872 45.4547 65.7307 45.3213 65.544C45.1933 65.3573 45.1293 65.1307 45.1293 64.864C45.1293 64.592 45.1933 64.368 45.3213 64.192C45.4547 64.0107 45.6333 63.8747 45.8573 63.784C46.0867 63.6933 46.3453 63.648 46.6333 63.648H47.8333V63.392C47.8333 63.1627 47.764 62.9787 47.6253 62.84C47.4867 62.7013 47.2733 62.632 46.9853 62.632C46.7027 62.632 46.4867 62.6987 46.3373 62.832C46.188 62.9653 46.0893 63.1387 46.0413 63.352L45.2733 63.104C45.3373 62.8907 45.4387 62.6987 45.5773 62.528C45.7213 62.352 45.9107 62.2107 46.1453 62.104C46.38 61.9973 46.6627 61.944 46.9933 61.944C47.5053 61.944 47.908 62.0747 48.2013 62.336C48.4947 62.5973 48.6413 62.968 48.6413 63.448V65.072C48.6413 65.232 48.716 65.312 48.8653 65.312H49.2013V66H48.5853C48.3987 66 48.2467 65.952 48.1293 65.856C48.012 65.76 47.9533 65.6293 47.9533 65.464V65.44H47.8333C47.7907 65.52 47.7267 65.6133 47.6413 65.72C47.556 65.8267 47.4307 65.92 47.2653 66C47.1 66.0747 46.8813 66.112 46.6093 66.112ZM46.7293 65.432C47.06 65.432 47.3267 65.3387 47.5293 65.152C47.732 64.96 47.8333 64.6987 47.8333 64.368V64.288H46.6813C46.4627 64.288 46.2867 64.336 46.1533 64.432C46.02 64.5227 45.9533 64.6587 45.9533 64.84C45.9533 65.0213 46.0227 65.1653 46.1613 65.272C46.3 65.3787 46.4893 65.432 46.7293 65.432ZM50.0025 66V62.056H50.8105V62.52H50.9385C51.0025 62.3547 51.1039 62.2347 51.2425 62.16C51.3865 62.08 51.5625 62.04 51.7705 62.04H52.2425V62.784H51.7385C51.4719 62.784 51.2532 62.8587 51.0825 63.008C50.9119 63.152 50.8265 63.376 50.8265 63.68V66H50.0025ZM54.7637 66.112C54.3637 66.112 54.0143 66.0293 53.7157 65.864C53.417 65.6933 53.1823 65.456 53.0117 65.152C52.8463 64.8427 52.7637 64.4853 52.7637 64.08V63.984C52.7637 63.5733 52.8463 63.216 53.0117 62.912C53.177 62.6027 53.4063 62.3653 53.6997 62.2C53.9983 62.0293 54.3423 61.944 54.7317 61.944C55.1103 61.944 55.441 62.0293 55.7237 62.2C56.0117 62.3653 56.2357 62.5973 56.3957 62.896C56.5557 63.1947 56.6357 63.544 56.6357 63.944V64.256H53.6037C53.6143 64.6027 53.729 64.88 53.9477 65.088C54.1717 65.2907 54.449 65.392 54.7797 65.392C55.089 65.392 55.321 65.3227 55.4757 65.184C55.6357 65.0453 55.7583 64.8853 55.8437 64.704L56.5237 65.056C56.449 65.2053 56.3397 65.3627 56.1957 65.528C56.057 65.6933 55.873 65.832 55.6437 65.944C55.4143 66.056 55.121 66.112 54.7637 66.112ZM53.6117 63.624H55.7957C55.7743 63.3253 55.6677 63.0933 55.4757 62.928C55.2837 62.7573 55.033 62.672 54.7237 62.672C54.4143 62.672 54.161 62.7573 53.9637 62.928C53.7717 63.0933 53.6543 63.3253 53.6117 63.624Z" fill="white"/>
<path d="M146.17 44.144C145.378 44.144 144.686 43.964 144.094 43.604C143.502 43.244 143.042 42.744 142.714 42.104C142.386 41.456 142.222 40.704 142.222 39.848C142.222 38.984 142.39 38.224 142.726 37.568C143.07 36.904 143.554 36.388 144.178 36.02C144.81 35.644 145.558 35.456 146.422 35.456C147.406 35.456 148.222 35.692 148.87 36.164C149.518 36.636 149.938 37.288 150.13 38.12H148.414C148.286 37.728 148.054 37.424 147.718 37.208C147.382 36.984 146.95 36.872 146.422 36.872C145.582 36.872 144.934 37.14 144.478 37.676C144.022 38.204 143.794 38.932 143.794 39.86C143.794 40.788 144.018 41.508 144.466 42.02C144.922 42.524 145.538 42.776 146.314 42.776C147.074 42.776 147.646 42.572 148.03 42.164C148.422 41.748 148.658 41.204 148.738 40.532H146.614V39.38H150.286V44H148.87L148.75 42.896C148.478 43.296 148.138 43.604 147.73 43.82C147.322 44.036 146.802 44.144 146.17 44.144ZM153.795 44.144C153.283 44.144 152.863 44.064 152.535 43.904C152.207 43.736 151.963 43.516 151.803 43.244C151.643 42.972 151.563 42.672 151.563 42.344C151.563 41.792 151.779 41.344 152.211 41C152.643 40.656 153.291 40.484 154.155 40.484H155.667V40.34C155.667 39.932 155.551 39.632 155.319 39.44C155.087 39.248 154.799 39.152 154.455 39.152C154.143 39.152 153.871 39.228 153.639 39.38C153.407 39.524 153.263 39.74 153.207 40.028H151.707C151.747 39.596 151.891 39.22 152.139 38.9C152.395 38.58 152.723 38.336 153.123 38.168C153.523 37.992 153.971 37.904 154.467 37.904C155.315 37.904 155.983 38.116 156.471 38.54C156.959 38.964 157.203 39.564 157.203 40.34V44H155.895L155.751 43.04C155.575 43.36 155.327 43.624 155.007 43.832C154.695 44.04 154.291 44.144 153.795 44.144ZM154.143 42.944C154.583 42.944 154.923 42.8 155.163 42.512C155.411 42.224 155.567 41.868 155.631 41.444H154.323C153.915 41.444 153.623 41.52 153.447 41.672C153.271 41.816 153.183 41.996 153.183 42.212C153.183 42.444 153.271 42.624 153.447 42.752C153.623 42.88 153.855 42.944 154.143 42.944ZM158.669 44V38.048H160.025L160.157 38.852C160.349 38.564 160.601 38.336 160.913 38.168C161.233 37.992 161.601 37.904 162.017 37.904C162.937 37.904 163.589 38.26 163.973 38.972C164.189 38.644 164.477 38.384 164.837 38.192C165.205 38 165.605 37.904 166.037 37.904C166.813 37.904 167.409 38.136 167.825 38.6C168.241 39.064 168.449 39.744 168.449 40.64V44H166.913V40.784C166.913 40.272 166.813 39.88 166.613 39.608C166.421 39.336 166.121 39.2 165.713 39.2C165.297 39.2 164.961 39.352 164.705 39.656C164.457 39.96 164.333 40.384 164.333 40.928V44H162.797V40.784C162.797 40.272 162.697 39.88 162.497 39.608C162.297 39.336 161.989 39.2 161.573 39.2C161.165 39.2 160.833 39.352 160.577 39.656C160.329 39.96 160.205 40.384 160.205 40.928V44H158.669ZM172.799 44.144C172.199 44.144 171.667 44.016 171.203 43.76C170.739 43.504 170.375 43.144 170.111 42.68C169.847 42.216 169.715 41.68 169.715 41.072C169.715 40.456 169.843 39.908 170.099 39.428C170.363 38.948 170.723 38.576 171.179 38.312C171.643 38.04 172.187 37.904 172.811 37.904C173.395 37.904 173.911 38.032 174.359 38.288C174.807 38.544 175.155 38.896 175.403 39.344C175.659 39.784 175.787 40.276 175.787 40.82C175.787 40.908 175.783 41 175.775 41.096C175.775 41.192 175.771 41.292 175.763 41.396H171.239C171.271 41.86 171.431 42.224 171.719 42.488C172.015 42.752 172.371 42.884 172.787 42.884C173.099 42.884 173.359 42.816 173.567 42.68C173.783 42.536 173.943 42.352 174.047 42.128H175.607C175.495 42.504 175.307 42.848 175.043 43.16C174.787 43.464 174.467 43.704 174.083 43.88C173.707 44.056 173.279 44.144 172.799 44.144ZM172.811 39.152C172.435 39.152 172.103 39.26 171.815 39.476C171.527 39.684 171.343 40.004 171.263 40.436H174.227C174.203 40.044 174.059 39.732 173.795 39.5C173.531 39.268 173.203 39.152 172.811 39.152ZM179.974 44V35.6H183.082C183.754 35.6 184.31 35.712 184.75 35.936C185.19 36.16 185.518 36.468 185.734 36.86C185.95 37.252 186.058 37.692 186.058 38.18C186.058 38.644 185.954 39.072 185.746 39.464C185.538 39.848 185.214 40.16 184.774 40.4C184.334 40.632 183.77 40.748 183.082 40.748H181.51V44H179.974ZM181.51 39.5H182.986C183.522 39.5 183.906 39.384 184.138 39.152C184.378 38.912 184.498 38.588 184.498 38.18C184.498 37.764 184.378 37.44 184.138 37.208C183.906 36.968 183.522 36.848 182.986 36.848H181.51V39.5ZM187.227 44V38.048H188.595L188.739 39.164C188.955 38.78 189.247 38.476 189.615 38.252C189.991 38.02 190.431 37.904 190.935 37.904V39.524H190.503C190.167 39.524 189.867 39.576 189.603 39.68C189.339 39.784 189.131 39.964 188.979 40.22C188.835 40.476 188.763 40.832 188.763 41.288V44H187.227ZM192.813 37.124C192.533 37.124 192.301 37.04 192.117 36.872C191.941 36.704 191.853 36.492 191.853 36.236C191.853 35.98 191.941 35.772 192.117 35.612C192.301 35.444 192.533 35.36 192.813 35.36C193.093 35.36 193.321 35.444 193.497 35.612C193.681 35.772 193.773 35.98 193.773 36.236C193.773 36.492 193.681 36.704 193.497 36.872C193.321 37.04 193.093 37.124 192.813 37.124ZM192.045 44V38.048H193.581V44H192.045ZM194.8 44V42.764L197.836 39.32H194.836V38.048H199.588V39.284L196.504 42.728H199.648V44H194.8ZM203.818 44.144C203.218 44.144 202.686 44.016 202.222 43.76C201.758 43.504 201.394 43.144 201.13 42.68C200.866 42.216 200.734 41.68 200.734 41.072C200.734 40.456 200.862 39.908 201.118 39.428C201.382 38.948 201.742 38.576 202.198 38.312C202.662 38.04 203.206 37.904 203.83 37.904C204.414 37.904 204.93 38.032 205.378 38.288C205.826 38.544 206.174 38.896 206.422 39.344C206.678 39.784 206.806 40.276 206.806 40.82C206.806 40.908 206.802 41 206.794 41.096C206.794 41.192 206.79 41.292 206.782 41.396H202.258C202.29 41.86 202.45 42.224 202.738 42.488C203.034 42.752 203.39 42.884 203.806 42.884C204.118 42.884 204.378 42.816 204.586 42.68C204.802 42.536 204.962 42.352 205.066 42.128H206.626C206.514 42.504 206.326 42.848 206.062 43.16C205.806 43.464 205.486 43.704 205.102 43.88C204.726 44.056 204.298 44.144 203.818 44.144ZM203.83 39.152C203.454 39.152 203.122 39.26 202.834 39.476C202.546 39.684 202.362 40.004 202.282 40.436H205.246C205.222 40.044 205.078 39.732 204.814 39.5C204.55 39.268 204.222 39.152 203.83 39.152Z" fill="white"/>
<path d="M125.601 70V57.4H130.119L132.585 68.38H132.909V57.4H135.285V70H130.767L128.301 59.02H127.977V70H125.601ZM123.945 65.932V64.096H136.941V65.932H123.945ZM123.945 63.124V61.288H136.941V63.124H123.945ZM142.335 70V59.092H142.011L140.319 63.088H137.907L140.481 57.4H144.639V70H142.335ZM147.252 72.646V71.422H147.954C148.506 71.422 148.782 71.146 148.782 70.594V70.018H148.476C147.996 70.018 147.594 69.874 147.27 69.586C146.958 69.298 146.802 68.932 146.802 68.488C146.802 68.008 146.958 67.618 147.27 67.318C147.594 67.018 147.996 66.868 148.476 66.868C148.968 66.868 149.37 67.024 149.682 67.336C149.994 67.636 150.15 68.044 150.15 68.56V70.63C150.15 71.974 149.478 72.646 148.134 72.646H147.252ZM156.742 70.252C155.254 70.252 154.06 69.844 153.16 69.028C152.26 68.2 151.81 66.952 151.81 65.284V62.116C151.81 60.496 152.26 59.266 153.16 58.426C154.06 57.574 155.254 57.148 156.742 57.148C158.242 57.148 159.436 57.574 160.324 58.426C161.224 59.266 161.674 60.496 161.674 62.116V65.284C161.674 66.952 161.224 68.2 160.324 69.028C159.436 69.844 158.242 70.252 156.742 70.252ZM156.742 68.2C157.642 68.2 158.302 67.954 158.722 67.462C159.154 66.97 159.37 66.268 159.37 65.356V62.008C159.37 61.084 159.13 60.388 158.65 59.92C158.182 59.44 157.546 59.2 156.742 59.2C155.914 59.2 155.266 59.446 154.798 59.938C154.342 60.43 154.114 61.12 154.114 62.008V65.356C154.114 66.304 154.33 67.018 154.762 67.498C155.206 67.966 155.866 68.2 156.742 68.2ZM168.414 70.252C166.926 70.252 165.732 69.844 164.832 69.028C163.932 68.2 163.482 66.952 163.482 65.284V62.116C163.482 60.496 163.932 59.266 164.832 58.426C165.732 57.574 166.926 57.148 168.414 57.148C169.914 57.148 171.108 57.574 171.996 58.426C172.896 59.266 173.346 60.496 173.346 62.116V65.284C173.346 66.952 172.896 68.2 171.996 69.028C171.108 69.844 169.914 70.252 168.414 70.252ZM168.414 68.2C169.314 68.2 169.974 67.954 170.394 67.462C170.826 66.97 171.042 66.268 171.042 65.356V62.008C171.042 61.084 170.802 60.388 170.322 59.92C169.854 59.44 169.218 59.2 168.414 59.2C167.586 59.2 166.938 59.446 166.47 59.938C166.014 60.43 165.786 61.12 165.786 62.008V65.356C165.786 66.304 166.002 67.018 166.434 67.498C166.878 67.966 167.538 68.2 168.414 68.2ZM180.086 70.252C178.598 70.252 177.404 69.844 176.504 69.028C175.604 68.2 175.154 66.952 175.154 65.284V62.116C175.154 60.496 175.604 59.266 176.504 58.426C177.404 57.574 178.598 57.148 180.086 57.148C181.586 57.148 182.78 57.574 183.668 58.426C184.568 59.266 185.018 60.496 185.018 62.116V65.284C185.018 66.952 184.568 68.2 183.668 69.028C182.78 69.844 181.586 70.252 180.086 70.252ZM180.086 68.2C180.986 68.2 181.646 67.954 182.066 67.462C182.498 66.97 182.714 66.268 182.714 65.356V62.008C182.714 61.084 182.474 60.388 181.994 59.92C181.526 59.44 180.89 59.2 180.086 59.2C179.258 59.2 178.61 59.446 178.142 59.938C177.686 60.43 177.458 61.12 177.458 62.008V65.356C177.458 66.304 177.674 67.018 178.106 67.498C178.55 67.966 179.21 68.2 180.086 68.2ZM187.137 72.646V71.422H187.839C188.391 71.422 188.667 71.146 188.667 70.594V70.018H188.361C187.881 70.018 187.479 69.874 187.155 69.586C186.843 69.298 186.687 68.932 186.687 68.488C186.687 68.008 186.843 67.618 187.155 67.318C187.479 67.018 187.881 66.868 188.361 66.868C188.853 66.868 189.255 67.024 189.567 67.336C189.879 67.636 190.035 68.044 190.035 68.56V70.63C190.035 71.974 189.363 72.646 188.019 72.646H187.137ZM196.627 70.252C195.139 70.252 193.945 69.844 193.045 69.028C192.145 68.2 191.695 66.952 191.695 65.284V62.116C191.695 60.496 192.145 59.266 193.045 58.426C193.945 57.574 195.139 57.148 196.627 57.148C198.127 57.148 199.321 57.574 200.209 58.426C201.109 59.266 201.559 60.496 201.559 62.116V65.284C201.559 66.952 201.109 68.2 200.209 69.028C199.321 69.844 198.127 70.252 196.627 70.252ZM196.627 68.2C197.527 68.2 198.187 67.954 198.607 67.462C199.039 66.97 199.255 66.268 199.255 65.356V62.008C199.255 61.084 199.015 60.388 198.535 59.92C198.067 59.44 197.431 59.2 196.627 59.2C195.799 59.2 195.151 59.446 194.683 59.938C194.227 60.43 193.999 61.12 193.999 62.008V65.356C193.999 66.304 194.215 67.018 194.647 67.498C195.091 67.966 195.751 68.2 196.627 68.2ZM208.299 70.252C206.811 70.252 205.617 69.844 204.717 69.028C203.817 68.2 203.367 66.952 203.367 65.284V62.116C203.367 60.496 203.817 59.266 204.717 58.426C205.617 57.574 206.811 57.148 208.299 57.148C209.799 57.148 210.993 57.574 211.881 58.426C212.781 59.266 213.231 60.496 213.231 62.116V65.284C213.231 66.952 212.781 68.2 211.881 69.028C210.993 69.844 209.799 70.252 208.299 70.252ZM208.299 68.2C209.199 68.2 209.859 67.954 210.279 67.462C210.711 66.97 210.927 66.268 210.927 65.356V62.008C210.927 61.084 210.687 60.388 210.207 59.92C209.739 59.44 209.103 59.2 208.299 59.2C207.471 59.2 206.823 59.446 206.355 59.938C205.899 60.43 205.671 61.12 205.671 62.008V65.356C205.671 66.304 205.887 67.018 206.319 67.498C206.763 67.966 207.423 68.2 208.299 68.2ZM219.971 70.252C218.483 70.252 217.289 69.844 216.389 69.028C215.489 68.2 215.039 66.952 215.039 65.284V62.116C215.039 60.496 215.489 59.266 216.389 58.426C217.289 57.574 218.483 57.148 219.971 57.148C221.471 57.148 222.665 57.574 223.553 58.426C224.453 59.266 224.903 60.496 224.903 62.116V65.284C224.903 66.952 224.453 68.2 223.553 69.028C222.665 69.844 221.471 70.252 219.971 70.252ZM219.971 68.2C220.871 68.2 221.531 67.954 221.951 67.462C222.383 66.97 222.599 66.268 222.599 65.356V62.008C222.599 61.084 222.359 60.388 221.879 59.92C221.411 59.44 220.775 59.2 219.971 59.2C219.143 59.2 218.495 59.446 218.027 59.938C217.571 60.43 217.343 61.12 217.343 62.008V65.356C217.343 66.304 217.559 67.018 217.991 67.498C218.435 67.966 219.095 68.2 219.971 68.2Z" fill="white"/>
<path d="M273.528 67V61.4H277.128V62.36H274.584V63.696H276.904V64.656H274.584V66.04H277.176V67H273.528ZM277.99 67V63.032H278.982V63.552H279.126C279.19 63.4133 279.31 63.2827 279.486 63.16C279.662 63.032 279.928 62.968 280.286 62.968C280.595 62.968 280.864 63.04 281.094 63.184C281.328 63.3227 281.51 63.5173 281.638 63.768C281.766 64.0133 281.83 64.3013 281.83 64.632V67H280.822V64.712C280.822 64.4133 280.747 64.1893 280.598 64.04C280.454 63.8907 280.246 63.816 279.974 63.816C279.664 63.816 279.424 63.92 279.254 64.128C279.083 64.3307 278.998 64.616 278.998 64.984V67H277.99ZM284.33 67C284.069 67 283.855 66.92 283.69 66.76C283.53 66.5947 283.45 66.376 283.45 66.104V63.864H282.458V63.032H283.45V61.8H284.458V63.032H285.546V63.864H284.458V65.928C284.458 66.088 284.533 66.168 284.682 66.168H285.45V67H284.33ZM286.458 67V63.032H287.45V63.48H287.594C287.653 63.32 287.749 63.2027 287.882 63.128C288.021 63.0533 288.181 63.016 288.362 63.016H288.842V63.912H288.346C288.09 63.912 287.88 63.9813 287.714 64.12C287.549 64.2533 287.466 64.4613 287.466 64.744V67H286.458ZM290.062 68.6V67.72H292.222C292.372 67.72 292.446 67.64 292.446 67.48V66.48H292.302C292.26 66.5707 292.193 66.6613 292.102 66.752C292.012 66.8427 291.889 66.9173 291.734 66.976C291.58 67.0347 291.382 67.064 291.142 67.064C290.833 67.064 290.561 66.9947 290.326 66.856C290.097 66.712 289.918 66.5147 289.79 66.264C289.662 66.0133 289.598 65.7253 289.598 65.4V63.032H290.606V65.32C290.606 65.6187 290.678 65.8427 290.822 65.992C290.972 66.1413 291.182 66.216 291.454 66.216C291.764 66.216 292.004 66.1147 292.174 65.912C292.345 65.704 292.43 65.416 292.43 65.048V63.032H293.438V67.704C293.438 67.976 293.358 68.192 293.198 68.352C293.038 68.5173 292.825 68.6 292.558 68.6H290.062ZM296.559 67V61.4H300.079V62.36H297.615V63.712H299.887V64.672H297.615V67H296.559ZM302.641 67.112C302.247 67.112 301.897 67.0293 301.593 66.864C301.295 66.6933 301.06 66.456 300.889 66.152C300.724 65.8427 300.641 65.48 300.641 65.064V64.968C300.641 64.552 300.724 64.192 300.889 63.888C301.055 63.5787 301.287 63.3413 301.585 63.176C301.884 63.0053 302.231 62.92 302.625 62.92C303.015 62.92 303.353 63.008 303.641 63.184C303.929 63.3547 304.153 63.5947 304.313 63.904C304.473 64.208 304.553 64.5627 304.553 64.968V65.312H301.665C301.676 65.584 301.777 65.8053 301.969 65.976C302.161 66.1467 302.396 66.232 302.673 66.232C302.956 66.232 303.164 66.1707 303.297 66.048C303.431 65.9253 303.532 65.7893 303.601 65.64L304.425 66.072C304.351 66.2107 304.241 66.3627 304.097 66.528C303.959 66.688 303.772 66.8267 303.537 66.944C303.303 67.056 303.004 67.112 302.641 67.112ZM301.673 64.56H303.529C303.508 64.3307 303.415 64.1467 303.249 64.008C303.089 63.8693 302.879 63.8 302.617 63.8C302.345 63.8 302.129 63.8693 301.969 64.008C301.809 64.1467 301.711 64.3307 301.673 64.56ZM307.259 67.112C306.864 67.112 306.515 67.0293 306.211 66.864C305.912 66.6933 305.677 66.456 305.507 66.152C305.341 65.8427 305.259 65.48 305.259 65.064V64.968C305.259 64.552 305.341 64.192 305.507 63.888C305.672 63.5787 305.904 63.3413 306.203 63.176C306.501 63.0053 306.848 62.92 307.243 62.92C307.632 62.92 307.971 63.008 308.259 63.184C308.547 63.3547 308.771 63.5947 308.931 63.904C309.091 64.208 309.171 64.5627 309.171 64.968V65.312H306.283C306.293 65.584 306.395 65.8053 306.587 65.976C306.779 66.1467 307.013 66.232 307.291 66.232C307.573 66.232 307.781 66.1707 307.915 66.048C308.048 65.9253 308.149 65.7893 308.219 65.64L309.043 66.072C308.968 66.2107 308.859 66.3627 308.715 66.528C308.576 66.688 308.389 66.8267 308.155 66.944C307.92 67.056 307.621 67.112 307.259 67.112ZM306.291 64.56H308.147C308.125 64.3307 308.032 64.1467 307.867 64.008C307.707 63.8693 307.496 63.8 307.235 63.8C306.963 63.8 306.747 63.8693 306.587 64.008C306.427 64.1467 306.328 64.3307 306.291 64.56Z" fill="white"/>
<path d="M314.548 68V59.6H317.032L319.312 67.136H319.504V59.6H320.8V68H318.316L316.036 60.452H315.844V68H314.548ZM313.468 65.096V64.076H321.88V65.096H313.468ZM313.468 63.404V62.396H321.88V63.404H313.468Z" fill="white"/>
<path d="M326.056 67V61.992H325.928L325.008 63.88H324.12L325.36 61.4H326.896V67H326.056ZM330.053 67.112C329.402 67.112 328.882 66.928 328.493 66.56C328.109 66.1867 327.917 65.6267 327.917 64.88V63.52C327.917 62.7893 328.109 62.2347 328.493 61.856C328.882 61.4773 329.402 61.288 330.053 61.288C330.709 61.288 331.229 61.4773 331.613 61.856C332.002 62.2347 332.197 62.7893 332.197 63.52V64.88C332.197 65.6267 332.002 66.1867 331.613 66.56C331.229 66.928 330.709 67.112 330.053 67.112ZM330.053 66.36C330.495 66.36 330.823 66.2347 331.037 65.984C331.25 65.728 331.357 65.3707 331.357 64.912V63.472C331.357 63.0133 331.242 62.6613 331.013 62.416C330.783 62.1653 330.463 62.04 330.053 62.04C329.637 62.04 329.317 62.168 329.093 62.424C328.869 62.6747 328.757 63.024 328.757 63.472V64.912C328.757 65.3813 328.863 65.7413 329.077 65.992C329.295 66.2373 329.621 66.36 330.053 66.36ZM335.209 67.112C334.558 67.112 334.038 66.928 333.649 66.56C333.265 66.1867 333.073 65.6267 333.073 64.88V63.52C333.073 62.7893 333.265 62.2347 333.649 61.856C334.038 61.4773 334.558 61.288 335.209 61.288C335.865 61.288 336.385 61.4773 336.769 61.856C337.158 62.2347 337.353 62.7893 337.353 63.52V64.88C337.353 65.6267 337.158 66.1867 336.769 66.56C336.385 66.928 335.865 67.112 335.209 67.112ZM335.209 66.36C335.651 66.36 335.979 66.2347 336.193 65.984C336.406 65.728 336.513 65.3707 336.513 64.912V63.472C336.513 63.0133 336.398 62.6613 336.169 62.416C335.939 62.1653 335.619 62.04 335.209 62.04C334.793 62.04 334.473 62.168 334.249 62.424C334.025 62.6747 333.913 63.024 333.913 63.472V64.912C333.913 65.3813 334.019 65.7413 334.233 65.992C334.451 66.2373 334.777 66.36 335.209 66.36ZM338.784 67.112C338.597 67.112 338.44 67.0507 338.312 66.928C338.189 66.8053 338.128 66.648 338.128 66.456C338.128 66.264 338.189 66.1093 338.312 65.992C338.44 65.8693 338.597 65.808 338.784 65.808C338.97 65.808 339.125 65.8693 339.248 65.992C339.376 66.1147 339.44 66.2693 339.44 66.456C339.44 66.648 339.376 66.8053 339.248 66.928C339.125 67.0507 338.97 67.112 338.784 67.112ZM342.357 67.112C341.707 67.112 341.187 66.928 340.797 66.56C340.413 66.1867 340.221 65.6267 340.221 64.88V63.52C340.221 62.7893 340.413 62.2347 340.797 61.856C341.187 61.4773 341.707 61.288 342.357 61.288C343.013 61.288 343.533 61.4773 343.917 61.856C344.307 62.2347 344.501 62.7893 344.501 63.52V64.88C344.501 65.6267 344.307 66.1867 343.917 66.56C343.533 66.928 343.013 67.112 342.357 67.112ZM342.357 66.36C342.8 66.36 343.128 66.2347 343.341 65.984C343.555 65.728 343.661 65.3707 343.661 64.912V63.472C343.661 63.0133 343.547 62.6613 343.317 62.416C343.088 62.1653 342.768 62.04 342.357 62.04C341.941 62.04 341.621 62.168 341.397 62.424C341.173 62.6747 341.061 63.024 341.061 63.472V64.912C341.061 65.3813 341.168 65.7413 341.381 65.992C341.6 66.2373 341.925 66.36 342.357 66.36ZM347.514 67.112C346.863 67.112 346.343 66.928 345.954 66.56C345.57 66.1867 345.378 65.6267 345.378 64.88V63.52C345.378 62.7893 345.57 62.2347 345.954 61.856C346.343 61.4773 346.863 61.288 347.514 61.288C348.17 61.288 348.69 61.4773 349.074 61.856C349.463 62.2347 349.658 62.7893 349.658 63.52V64.88C349.658 65.6267 349.463 66.1867 349.074 66.56C348.69 66.928 348.17 67.112 347.514 67.112ZM347.514 66.36C347.956 66.36 348.284 66.2347 348.498 65.984C348.711 65.728 348.818 65.3707 348.818 64.912V63.472C348.818 63.0133 348.703 62.6613 348.474 62.416C348.244 62.1653 347.924 62.04 347.514 62.04C347.098 62.04 346.778 62.168 346.554 62.424C346.33 62.6747 346.218 63.024 346.218 63.472V64.912C346.218 65.3813 346.324 65.7413 346.538 65.992C346.756 66.2373 347.082 66.36 347.514 66.36Z" fill="white"/>
</svg>
