<svg width="365" height="100" viewBox="0 0 365 100" fill="none" xmlns="http://www.w3.org/2000/svg">
<rect width="365" height="100" rx="10" fill="#1B1B1B"/>
<path d="M32.5913 32V19.4H40.6913V21.56H34.9673V24.566H40.1873V26.726H34.9673V29.84H40.7993V32H32.5913ZM42.6301 32V23.072H44.8621V24.08H45.1861C45.3181 23.72 45.5341 23.456 45.8341 23.288C46.1461 23.12 46.5061 23.036 46.9141 23.036H47.9941V25.052H46.8781C46.3021 25.052 45.8281 25.208 45.4561 25.52C45.0841 25.82 44.8981 26.288 44.8981 26.924V32H42.6301ZM52.3279 32.252C51.6919 32.252 51.1219 32.144 50.6179 31.928C50.1139 31.7 49.7119 31.376 49.4119 30.956C49.1239 30.524 48.9799 30.002 48.9799 29.39C48.9799 28.778 49.1239 28.268 49.4119 27.86C49.7119 27.44 50.1199 27.128 50.6359 26.924C51.1639 26.708 51.7639 26.6 52.4359 26.6H54.8839V26.096C54.8839 25.676 54.7519 25.334 54.4879 25.07C54.2239 24.794 53.8039 24.656 53.2279 24.656C52.6639 24.656 52.2439 24.788 51.9679 25.052C51.6919 25.304 51.5119 25.634 51.4279 26.042L49.3399 25.34C49.4839 24.884 49.7119 24.47 50.0239 24.098C50.3479 23.714 50.7739 23.408 51.3019 23.18C51.8419 22.94 52.4959 22.82 53.2639 22.82C54.4399 22.82 55.3699 23.114 56.0539 23.702C56.7379 24.29 57.0799 25.142 57.0799 26.258V29.588C57.0799 29.948 57.2479 30.128 57.5839 30.128H58.3039V32H56.7919C56.3479 32 55.9819 31.892 55.6939 31.676C55.4059 31.46 55.2619 31.172 55.2619 30.812V30.794H54.9199C54.8719 30.938 54.7639 31.13 54.5959 31.37C54.4279 31.598 54.1639 31.802 53.8039 31.982C53.4439 32.162 52.9519 32.252 52.3279 32.252ZM52.7239 30.416C53.3599 30.416 53.8759 30.242 54.2719 29.894C54.6799 29.534 54.8839 29.06 54.8839 28.472V28.292H52.5979C52.1779 28.292 51.8479 28.382 51.6079 28.562C51.3679 28.742 51.2479 28.994 51.2479 29.318C51.2479 29.642 51.3739 29.906 51.6259 30.11C51.8779 30.314 52.2439 30.416 52.7239 30.416ZM63.5998 32.252C62.4358 32.252 61.4818 32 60.7378 31.496C59.9938 30.992 59.5438 30.272 59.3878 29.336L61.4758 28.796C61.5598 29.216 61.6978 29.546 61.8898 29.786C62.0938 30.026 62.3398 30.2 62.6278 30.308C62.9278 30.404 63.2518 30.452 63.5998 30.452C64.1278 30.452 64.5178 30.362 64.7698 30.182C65.0218 29.99 65.1478 29.756 65.1478 29.48C65.1478 29.204 65.0278 28.994 64.7878 28.85C64.5478 28.694 64.1638 28.568 63.6358 28.472L63.1318 28.382C62.5078 28.262 61.9378 28.1 61.4218 27.896C60.9058 27.68 60.4918 27.386 60.1798 27.014C59.8678 26.642 59.7118 26.162 59.7118 25.574C59.7118 24.686 60.0358 24.008 60.6838 23.54C61.3318 23.06 62.1838 22.82 63.2398 22.82C64.2358 22.82 65.0638 23.042 65.7238 23.486C66.3838 23.93 66.8158 24.512 67.0198 25.232L64.9138 25.88C64.8178 25.424 64.6198 25.1 64.3198 24.908C64.0318 24.716 63.6718 24.62 63.2398 24.62C62.8078 24.62 62.4778 24.698 62.2498 24.854C62.0218 24.998 61.9078 25.202 61.9078 25.466C61.9078 25.754 62.0278 25.97 62.2678 26.114C62.5078 26.246 62.8318 26.348 63.2398 26.42L63.7438 26.51C64.4158 26.63 65.0218 26.792 65.5618 26.996C66.1138 27.188 66.5458 27.47 66.8578 27.842C67.1818 28.202 67.3438 28.694 67.3438 29.318C67.3438 30.254 67.0018 30.98 66.3178 31.496C65.6458 32 64.7398 32.252 63.5998 32.252ZM73.3993 32.252C72.5113 32.252 71.7253 32.066 71.0413 31.694C70.3693 31.31 69.8413 30.776 69.4573 30.092C69.0853 29.396 68.8993 28.58 68.8993 27.644V27.428C68.8993 26.492 69.0853 25.682 69.4573 24.998C69.8293 24.302 70.3513 23.768 71.0233 23.396C71.6953 23.012 72.4753 22.82 73.3633 22.82C74.2393 22.82 75.0013 23.018 75.6493 23.414C76.2973 23.798 76.8013 24.338 77.1613 25.034C77.5213 25.718 77.7013 26.516 77.7013 27.428V28.202H71.2033C71.2273 28.814 71.4553 29.312 71.8873 29.696C72.3193 30.08 72.8473 30.272 73.4713 30.272C74.1073 30.272 74.5753 30.134 74.8753 29.858C75.1753 29.582 75.4033 29.276 75.5593 28.94L77.4133 29.912C77.2453 30.224 76.9993 30.566 76.6753 30.938C76.3633 31.298 75.9433 31.61 75.4153 31.874C74.8873 32.126 74.2153 32.252 73.3993 32.252ZM71.2213 26.51H75.3973C75.3493 25.994 75.1393 25.58 74.7673 25.268C74.4073 24.956 73.9333 24.8 73.3453 24.8C72.7333 24.8 72.2473 24.956 71.8873 25.268C71.5273 25.58 71.3053 25.994 71.2213 26.51ZM79.72 32V23.072H81.952V24.08H82.276C82.408 23.72 82.624 23.456 82.924 23.288C83.236 23.12 83.596 23.036 84.004 23.036H85.084V25.052H83.968C83.392 25.052 82.918 25.208 82.546 25.52C82.174 25.82 81.988 26.288 81.988 26.924V32H79.72Z" fill="white"/>
<path d="M31.876 62V53.6H33.172V60.824H37.216V62H31.876ZM41.1279 62.168C40.5279 62.168 40.0039 62.044 39.5559 61.796C39.1079 61.54 38.7559 61.184 38.4999 60.728C38.2519 60.264 38.1279 59.728 38.1279 59.12V58.976C38.1279 58.36 38.2519 57.824 38.4999 57.368C38.7479 56.904 39.0919 56.548 39.5319 56.3C39.9799 56.044 40.4959 55.916 41.0799 55.916C41.6479 55.916 42.1439 56.044 42.5679 56.3C42.9999 56.548 43.3359 56.896 43.5759 57.344C43.8159 57.792 43.9359 58.316 43.9359 58.916V59.384H39.3879C39.4039 59.904 39.5759 60.32 39.9039 60.632C40.2399 60.936 40.6559 61.088 41.1519 61.088C41.6159 61.088 41.9639 60.984 42.1959 60.776C42.4359 60.568 42.6199 60.328 42.7479 60.056L43.7679 60.584C43.6559 60.808 43.4919 61.044 43.2759 61.292C43.0679 61.54 42.7919 61.748 42.4479 61.916C42.1039 62.084 41.6639 62.168 41.1279 62.168ZM39.3999 58.436H42.6759C42.6439 57.988 42.4839 57.64 42.1959 57.392C41.9079 57.136 41.5319 57.008 41.0679 57.008C40.6039 57.008 40.2239 57.136 39.9279 57.392C39.6399 57.64 39.4639 57.988 39.3999 58.436ZM47.4211 62C47.0611 62 46.7731 61.892 46.5571 61.676C46.3491 61.46 46.2451 61.172 46.2451 60.812V57.128H44.6131V56.084H46.2451V54.128H47.4811V56.084H49.2451V57.128H47.4811V60.596C47.4811 60.836 47.5931 60.956 47.8171 60.956H49.0531V62H47.4211ZM54.4398 64.4V63.32H57.7398C57.9638 63.32 58.0758 63.2 58.0758 62.96V61.136H57.8838C57.8118 61.296 57.6998 61.452 57.5478 61.604C57.4038 61.748 57.2078 61.868 56.9598 61.964C56.7118 62.06 56.3998 62.108 56.0238 62.108C55.5758 62.108 55.1758 62.008 54.8238 61.808C54.4718 61.608 54.1958 61.324 53.9958 60.956C53.7958 60.588 53.6958 60.152 53.6958 59.648V56.084H54.9318V59.552C54.9318 60.064 55.0598 60.444 55.3158 60.692C55.5718 60.932 55.9278 61.052 56.3838 61.052C56.8878 61.052 57.2918 60.884 57.5958 60.548C57.9078 60.212 58.0638 59.724 58.0638 59.084V56.084H59.2998V63.212C59.2998 63.572 59.1918 63.86 58.9758 64.076C58.7678 64.292 58.4798 64.4 58.1118 64.4H54.4398ZM63.8988 62.168C63.3068 62.168 62.7788 62.048 62.3148 61.808C61.8588 61.56 61.4988 61.208 61.2348 60.752C60.9708 60.296 60.8388 59.756 60.8388 59.132V58.952C60.8388 58.328 60.9708 57.792 61.2348 57.344C61.4988 56.888 61.8588 56.536 62.3148 56.288C62.7788 56.04 63.3068 55.916 63.8988 55.916C64.4908 55.916 65.0188 56.04 65.4828 56.288C65.9468 56.536 66.3108 56.888 66.5748 57.344C66.8388 57.792 66.9708 58.328 66.9708 58.952V59.132C66.9708 59.756 66.8388 60.296 66.5748 60.752C66.3108 61.208 65.9468 61.56 65.4828 61.808C65.0188 62.048 64.4908 62.168 63.8988 62.168ZM63.8988 61.064C64.4428 61.064 64.8828 60.892 65.2188 60.548C65.5628 60.196 65.7348 59.712 65.7348 59.096V58.988C65.7348 58.372 65.5668 57.892 65.2308 57.548C64.8948 57.196 64.4508 57.02 63.8988 57.02C63.3628 57.02 62.9228 57.196 62.5788 57.548C62.2428 57.892 62.0748 58.372 62.0748 58.988V59.096C62.0748 59.712 62.2428 60.196 62.5788 60.548C62.9228 60.892 63.3628 61.064 63.8988 61.064ZM70.7777 62.108C70.3297 62.108 69.9297 62.008 69.5777 61.808C69.2257 61.608 68.9497 61.324 68.7497 60.956C68.5497 60.588 68.4497 60.148 68.4497 59.636V56.084H69.6857V59.552C69.6857 60.064 69.8137 60.444 70.0697 60.692C70.3257 60.932 70.6817 61.052 71.1377 61.052C71.6417 61.052 72.0457 60.884 72.3497 60.548C72.6617 60.204 72.8177 59.712 72.8177 59.072V56.084H74.0537V62H72.8417V61.112H72.6497C72.5377 61.352 72.3377 61.58 72.0497 61.796C71.7617 62.004 71.3377 62.108 70.7777 62.108ZM81.6873 62.168C81.1193 62.168 80.6033 62.048 80.1393 61.808C79.6833 61.568 79.3193 61.22 79.0473 60.764C78.7833 60.308 78.6513 59.76 78.6513 59.12V58.964C78.6513 58.324 78.7833 57.78 79.0473 57.332C79.3193 56.876 79.6833 56.528 80.1393 56.288C80.6033 56.04 81.1193 55.916 81.6873 55.916C82.2553 55.916 82.7393 56.02 83.1393 56.228C83.5393 56.436 83.8593 56.712 84.0993 57.056C84.3473 57.4 84.5073 57.78 84.5793 58.196L83.3793 58.448C83.3393 58.184 83.2553 57.944 83.1273 57.728C82.9993 57.512 82.8193 57.34 82.5873 57.212C82.3553 57.084 82.0633 57.02 81.7113 57.02C81.3673 57.02 81.0553 57.1 80.7753 57.26C80.5033 57.412 80.2873 57.636 80.1273 57.932C79.9673 58.22 79.8873 58.572 79.8873 58.988V59.096C79.8873 59.512 79.9673 59.868 80.1273 60.164C80.2873 60.46 80.5033 60.684 80.7753 60.836C81.0553 60.988 81.3673 61.064 81.7113 61.064C82.2313 61.064 82.6273 60.932 82.8993 60.668C83.1713 60.396 83.3433 60.052 83.4153 59.636L84.6153 59.912C84.5193 60.32 84.3473 60.696 84.0993 61.04C83.8593 61.384 83.5393 61.66 83.1393 61.868C82.7393 62.068 82.2553 62.168 81.6873 62.168ZM88.8129 62.168C88.2209 62.168 87.6929 62.048 87.2289 61.808C86.7729 61.56 86.4129 61.208 86.1489 60.752C85.8849 60.296 85.7529 59.756 85.7529 59.132V58.952C85.7529 58.328 85.8849 57.792 86.1489 57.344C86.4129 56.888 86.7729 56.536 87.2289 56.288C87.6929 56.04 88.2209 55.916 88.8129 55.916C89.4049 55.916 89.9329 56.04 90.3969 56.288C90.8609 56.536 91.2249 56.888 91.4889 57.344C91.7529 57.792 91.8849 58.328 91.8849 58.952V59.132C91.8849 59.756 91.7529 60.296 91.4889 60.752C91.2249 61.208 90.8609 61.56 90.3969 61.808C89.9329 62.048 89.4049 62.168 88.8129 62.168ZM88.8129 61.064C89.3569 61.064 89.7969 60.892 90.1329 60.548C90.4769 60.196 90.6489 59.712 90.6489 59.096V58.988C90.6489 58.372 90.4809 57.892 90.1449 57.548C89.8089 57.196 89.3649 57.02 88.8129 57.02C88.2769 57.02 87.8369 57.196 87.4929 57.548C87.1569 57.892 86.9889 58.372 86.9889 58.988V59.096C86.9889 59.712 87.1569 60.196 87.4929 60.548C87.8369 60.892 88.2769 61.064 88.8129 61.064ZM93.4237 62V56.084H94.6357V56.78H94.8277C94.9237 56.532 95.0757 56.352 95.2837 56.24C95.4997 56.12 95.7637 56.06 96.0757 56.06H96.7837V57.176H96.0277C95.6277 57.176 95.2997 57.288 95.0437 57.512C94.7877 57.728 94.6597 58.064 94.6597 58.52V62H93.4237ZM98.0643 62V56.084H99.2763V56.78H99.4683C99.5643 56.532 99.7163 56.352 99.9243 56.24C100.14 56.12 100.404 56.06 100.716 56.06H101.424V57.176H100.668C100.268 57.176 99.9403 57.288 99.6843 57.512C99.4283 57.728 99.3003 58.064 99.3003 58.52V62H98.0643ZM105.206 62.168C104.606 62.168 104.082 62.044 103.634 61.796C103.186 61.54 102.834 61.184 102.578 60.728C102.33 60.264 102.206 59.728 102.206 59.12V58.976C102.206 58.36 102.33 57.824 102.578 57.368C102.826 56.904 103.17 56.548 103.61 56.3C104.058 56.044 104.574 55.916 105.158 55.916C105.726 55.916 106.222 56.044 106.646 56.3C107.078 56.548 107.414 56.896 107.654 57.344C107.894 57.792 108.014 58.316 108.014 58.916V59.384H103.466C103.482 59.904 103.654 60.32 103.982 60.632C104.318 60.936 104.734 61.088 105.23 61.088C105.694 61.088 106.042 60.984 106.274 60.776C106.514 60.568 106.698 60.328 106.826 60.056L107.846 60.584C107.734 60.808 107.57 61.044 107.354 61.292C107.146 61.54 106.87 61.748 106.526 61.916C106.182 62.084 105.742 62.168 105.206 62.168ZM103.478 58.436H106.754C106.722 57.988 106.562 57.64 106.274 57.392C105.986 57.136 105.61 57.008 105.146 57.008C104.682 57.008 104.302 57.136 104.006 57.392C103.718 57.64 103.542 57.988 103.478 58.436ZM112.25 62.168C111.682 62.168 111.166 62.048 110.702 61.808C110.246 61.568 109.882 61.22 109.61 60.764C109.346 60.308 109.214 59.76 109.214 59.12V58.964C109.214 58.324 109.346 57.78 109.61 57.332C109.882 56.876 110.246 56.528 110.702 56.288C111.166 56.04 111.682 55.916 112.25 55.916C112.818 55.916 113.302 56.02 113.702 56.228C114.102 56.436 114.422 56.712 114.662 57.056C114.91 57.4 115.07 57.78 115.142 58.196L113.942 58.448C113.902 58.184 113.818 57.944 113.69 57.728C113.562 57.512 113.382 57.34 113.15 57.212C112.918 57.084 112.626 57.02 112.274 57.02C111.93 57.02 111.618 57.1 111.338 57.26C111.066 57.412 110.85 57.636 110.69 57.932C110.53 58.22 110.45 58.572 110.45 58.988V59.096C110.45 59.512 110.53 59.868 110.69 60.164C110.85 60.46 111.066 60.684 111.338 60.836C111.618 60.988 111.93 61.064 112.274 61.064C112.794 61.064 113.19 60.932 113.462 60.668C113.734 60.396 113.906 60.052 113.978 59.636L115.178 59.912C115.082 60.32 114.91 60.696 114.662 61.04C114.422 61.384 114.102 61.66 113.702 61.868C113.302 62.068 112.818 62.168 112.25 62.168ZM118.601 62C118.241 62 117.953 61.892 117.737 61.676C117.529 61.46 117.425 61.172 117.425 60.812V57.128H115.793V56.084H117.425V54.128H118.661V56.084H120.425V57.128H118.661V60.596C118.661 60.836 118.773 60.956 118.997 60.956H120.233V62H118.601ZM125.583 62L124.575 56.084H125.811L126.555 61.172H126.747L127.779 56.084H129.783L130.803 61.172H130.995L131.739 56.084H132.975L131.967 62H129.891L128.871 56.924H128.679L127.659 62H125.583ZM134.439 62V56.084H135.651V56.78H135.843C135.939 56.532 136.091 56.352 136.299 56.24C136.515 56.12 136.779 56.06 137.091 56.06H137.799V57.176H137.043C136.643 57.176 136.315 57.288 136.059 57.512C135.803 57.728 135.675 58.064 135.675 58.52V62H134.439ZM141.641 62.168C141.049 62.168 140.521 62.048 140.057 61.808C139.601 61.56 139.241 61.208 138.977 60.752C138.713 60.296 138.581 59.756 138.581 59.132V58.952C138.581 58.328 138.713 57.792 138.977 57.344C139.241 56.888 139.601 56.536 140.057 56.288C140.521 56.04 141.049 55.916 141.641 55.916C142.233 55.916 142.761 56.04 143.225 56.288C143.689 56.536 144.053 56.888 144.317 57.344C144.581 57.792 144.713 58.328 144.713 58.952V59.132C144.713 59.756 144.581 60.296 144.317 60.752C144.053 61.208 143.689 61.56 143.225 61.808C142.761 62.048 142.233 62.168 141.641 62.168ZM141.641 61.064C142.185 61.064 142.625 60.892 142.961 60.548C143.305 60.196 143.477 59.712 143.477 59.096V58.988C143.477 58.372 143.309 57.892 142.973 57.548C142.637 57.196 142.193 57.02 141.641 57.02C141.105 57.02 140.665 57.196 140.321 57.548C139.985 57.892 139.817 58.372 139.817 58.988V59.096C139.817 59.712 139.985 60.196 140.321 60.548C140.665 60.892 141.105 61.064 141.641 61.064ZM146.252 62V56.084H147.464V56.972H147.656C147.768 56.732 147.968 56.508 148.256 56.3C148.544 56.092 148.972 55.988 149.54 55.988C149.988 55.988 150.384 56.088 150.728 56.288C151.08 56.488 151.356 56.772 151.556 57.14C151.756 57.5 151.856 57.936 151.856 58.448V62H150.62V58.544C150.62 58.032 150.492 57.656 150.236 57.416C149.98 57.168 149.628 57.044 149.18 57.044C148.668 57.044 148.256 57.212 147.944 57.548C147.64 57.884 147.488 58.372 147.488 59.012V62H146.252ZM153.347 59.072V58.892C153.347 58.268 153.471 57.736 153.719 57.296C153.975 56.856 154.311 56.516 154.727 56.276C155.143 56.036 155.599 55.916 156.095 55.916C156.671 55.916 157.111 56.024 157.415 56.24C157.727 56.456 157.955 56.688 158.099 56.936H158.291V56.084H159.491V63.212C159.491 63.572 159.383 63.86 159.167 64.076C158.959 64.292 158.671 64.4 158.303 64.4H154.319V63.32H157.919C158.151 63.32 158.267 63.2 158.267 62.96V61.076H158.075C157.987 61.22 157.863 61.368 157.703 61.52C157.543 61.672 157.331 61.796 157.067 61.892C156.811 61.988 156.487 62.036 156.095 62.036C155.599 62.036 155.139 61.92 154.715 61.688C154.299 61.448 153.967 61.108 153.719 60.668C153.471 60.22 153.347 59.688 153.347 59.072ZM156.431 60.956C156.967 60.956 157.407 60.788 157.751 60.452C158.103 60.108 158.279 59.636 158.279 59.036V58.928C158.279 58.312 158.107 57.84 157.763 57.512C157.419 57.176 156.975 57.008 156.431 57.008C155.903 57.008 155.463 57.176 155.111 57.512C154.767 57.84 154.595 58.312 154.595 58.928V59.036C154.595 59.636 154.767 60.108 155.111 60.452C155.463 60.788 155.903 60.956 156.431 60.956ZM166.205 62.168C165.781 62.168 165.401 62.096 165.065 61.952C164.737 61.808 164.473 61.596 164.273 61.316C164.081 61.036 163.985 60.696 163.985 60.296C163.985 59.888 164.081 59.552 164.273 59.288C164.473 59.016 164.741 58.812 165.077 58.676C165.421 58.54 165.809 58.472 166.241 58.472H168.041V58.088C168.041 57.744 167.937 57.468 167.729 57.26C167.521 57.052 167.201 56.948 166.769 56.948C166.345 56.948 166.021 57.048 165.797 57.248C165.573 57.448 165.425 57.708 165.353 58.028L164.201 57.656C164.297 57.336 164.449 57.048 164.657 56.792C164.873 56.528 165.157 56.316 165.509 56.156C165.861 55.996 166.285 55.916 166.781 55.916C167.549 55.916 168.153 56.112 168.593 56.504C169.033 56.896 169.253 57.452 169.253 58.172V60.608C169.253 60.848 169.365 60.968 169.589 60.968H170.093V62H169.169C168.889 62 168.661 61.928 168.485 61.784C168.309 61.64 168.221 61.444 168.221 61.196V61.16H168.041C167.977 61.28 167.881 61.42 167.753 61.58C167.625 61.74 167.437 61.88 167.189 62C166.941 62.112 166.613 62.168 166.205 62.168ZM166.385 61.148C166.881 61.148 167.281 61.008 167.585 60.728C167.889 60.44 168.041 60.048 168.041 59.552V59.432H166.313C165.985 59.432 165.721 59.504 165.521 59.648C165.321 59.784 165.221 59.988 165.221 60.26C165.221 60.532 165.325 60.748 165.533 60.908C165.741 61.068 166.025 61.148 166.385 61.148ZM171.295 62V56.084H172.507V56.972H172.699C172.811 56.732 173.011 56.508 173.299 56.3C173.587 56.092 174.015 55.988 174.583 55.988C175.031 55.988 175.427 56.088 175.771 56.288C176.123 56.488 176.399 56.772 176.599 57.14C176.799 57.5 176.899 57.936 176.899 58.448V62H175.663V58.544C175.663 58.032 175.535 57.656 175.279 57.416C175.023 57.168 174.671 57.044 174.223 57.044C173.711 57.044 173.299 57.212 172.987 57.548C172.683 57.884 172.531 58.372 172.531 59.012V62H171.295ZM181.102 62.168C180.35 62.168 179.726 62 179.23 61.664C178.734 61.328 178.43 60.82 178.318 60.14L179.47 59.864C179.534 60.192 179.642 60.452 179.794 60.644C179.946 60.836 180.134 60.972 180.358 61.052C180.59 61.132 180.838 61.172 181.102 61.172C181.494 61.172 181.794 61.096 182.002 60.944C182.218 60.792 182.326 60.596 182.326 60.356C182.326 60.116 182.226 59.94 182.026 59.828C181.826 59.716 181.53 59.624 181.138 59.552L180.73 59.48C180.33 59.408 179.966 59.304 179.638 59.168C179.31 59.032 179.05 58.844 178.858 58.604C178.666 58.364 178.57 58.056 178.57 57.68C178.57 57.12 178.778 56.688 179.194 56.384C179.61 56.072 180.162 55.916 180.85 55.916C181.514 55.916 182.058 56.068 182.482 56.372C182.914 56.668 183.194 57.072 183.322 57.584L182.17 57.908C182.098 57.548 181.946 57.296 181.714 57.152C181.482 57 181.194 56.924 180.85 56.924C180.514 56.924 180.25 56.988 180.058 57.116C179.866 57.236 179.77 57.408 179.77 57.632C179.77 57.872 179.862 58.048 180.046 58.16C180.238 58.272 180.494 58.356 180.814 58.412L181.234 58.484C181.658 58.556 182.046 58.656 182.398 58.784C182.75 58.912 183.026 59.096 183.226 59.336C183.434 59.576 183.538 59.896 183.538 60.296C183.538 60.888 183.318 61.348 182.878 61.676C182.438 62.004 181.846 62.168 181.102 62.168ZM185.583 62L184.575 56.084H185.811L186.555 61.172H186.747L187.779 56.084H189.783L190.803 61.172H190.995L191.739 56.084H192.975L191.967 62H189.891L188.871 56.924H188.679L187.659 62H185.583ZM197.081 62.168C196.481 62.168 195.957 62.044 195.509 61.796C195.061 61.54 194.709 61.184 194.453 60.728C194.205 60.264 194.081 59.728 194.081 59.12V58.976C194.081 58.36 194.205 57.824 194.453 57.368C194.701 56.904 195.045 56.548 195.485 56.3C195.933 56.044 196.449 55.916 197.033 55.916C197.601 55.916 198.097 56.044 198.521 56.3C198.953 56.548 199.289 56.896 199.529 57.344C199.769 57.792 199.889 58.316 199.889 58.916V59.384H195.341C195.357 59.904 195.529 60.32 195.857 60.632C196.193 60.936 196.609 61.088 197.105 61.088C197.569 61.088 197.917 60.984 198.149 60.776C198.389 60.568 198.573 60.328 198.701 60.056L199.721 60.584C199.609 60.808 199.445 61.044 199.229 61.292C199.021 61.54 198.745 61.748 198.401 61.916C198.057 62.084 197.617 62.168 197.081 62.168ZM195.353 58.436H198.629C198.597 57.988 198.437 57.64 198.149 57.392C197.861 57.136 197.485 57.008 197.021 57.008C196.557 57.008 196.177 57.136 195.881 57.392C195.593 57.64 195.417 57.988 195.353 58.436ZM201.377 62V56.084H202.589V56.78H202.781C202.877 56.532 203.029 56.352 203.237 56.24C203.453 56.12 203.717 56.06 204.029 56.06H204.737V57.176H203.981C203.581 57.176 203.253 57.288 202.997 57.512C202.741 57.728 202.613 58.064 202.613 58.52V62H201.377ZM208.313 62.168C207.561 62.168 206.937 62 206.441 61.664C205.945 61.328 205.641 60.82 205.529 60.14L206.681 59.864C206.745 60.192 206.853 60.452 207.005 60.644C207.157 60.836 207.345 60.972 207.569 61.052C207.801 61.132 208.049 61.172 208.313 61.172C208.705 61.172 209.005 61.096 209.213 60.944C209.429 60.792 209.537 60.596 209.537 60.356C209.537 60.116 209.437 59.94 209.237 59.828C209.037 59.716 208.741 59.624 208.349 59.552L207.941 59.48C207.541 59.408 207.177 59.304 206.849 59.168C206.521 59.032 206.261 58.844 206.069 58.604C205.877 58.364 205.781 58.056 205.781 57.68C205.781 57.12 205.989 56.688 206.405 56.384C206.821 56.072 207.373 55.916 208.061 55.916C208.725 55.916 209.269 56.068 209.693 56.372C210.125 56.668 210.405 57.072 210.533 57.584L209.381 57.908C209.309 57.548 209.157 57.296 208.925 57.152C208.693 57 208.405 56.924 208.061 56.924C207.725 56.924 207.461 56.988 207.269 57.116C207.077 57.236 206.981 57.408 206.981 57.632C206.981 57.872 207.073 58.048 207.257 58.16C207.449 58.272 207.705 58.356 208.025 58.412L208.445 58.484C208.869 58.556 209.257 58.656 209.609 58.784C209.961 58.912 210.237 59.096 210.437 59.336C210.645 59.576 210.749 59.896 210.749 60.296C210.749 60.888 210.529 61.348 210.089 61.676C209.649 62.004 209.057 62.168 208.313 62.168ZM215.252 62V56.084H216.488V62H215.252ZM215.876 55.28C215.636 55.28 215.432 55.204 215.264 55.052C215.104 54.892 215.024 54.688 215.024 54.44C215.024 54.192 215.104 53.992 215.264 53.84C215.432 53.68 215.636 53.6 215.876 53.6C216.124 53.6 216.328 53.68 216.488 53.84C216.648 53.992 216.728 54.192 216.728 54.44C216.728 54.688 216.648 54.892 216.488 55.052C216.328 55.204 216.124 55.28 215.876 55.28ZM218.322 62V56.084H219.534V56.972H219.726C219.838 56.732 220.038 56.508 220.326 56.3C220.614 56.092 221.042 55.988 221.61 55.988C222.058 55.988 222.454 56.088 222.798 56.288C223.15 56.488 223.426 56.772 223.626 57.14C223.826 57.5 223.926 57.936 223.926 58.448V62H222.69V58.544C222.69 58.032 222.562 57.656 222.306 57.416C222.05 57.168 221.698 57.044 221.25 57.044C220.738 57.044 220.326 57.212 220.014 57.548C219.71 57.884 219.558 58.372 219.558 59.012V62H218.322ZM230.984 62C230.624 62 230.336 61.892 230.12 61.676C229.912 61.46 229.808 61.172 229.808 60.812V57.128H228.176V56.084H229.808V54.128H231.044V56.084H232.808V57.128H231.044V60.596C231.044 60.836 231.156 60.956 231.38 60.956H232.616V62H230.984ZM234.26 62V53.6H235.496V56.924H235.688C235.768 56.772 235.88 56.624 236.024 56.48C236.176 56.336 236.372 56.22 236.612 56.132C236.86 56.036 237.172 55.988 237.548 55.988C237.996 55.988 238.392 56.088 238.736 56.288C239.088 56.488 239.364 56.772 239.564 57.14C239.764 57.5 239.864 57.936 239.864 58.448V62H238.628V58.544C238.628 58.032 238.5 57.656 238.244 57.416C237.988 57.168 237.636 57.044 237.188 57.044C236.676 57.044 236.264 57.212 235.952 57.548C235.648 57.884 235.496 58.372 235.496 59.012V62H234.26ZM244.354 62.168C243.754 62.168 243.23 62.044 242.782 61.796C242.334 61.54 241.982 61.184 241.726 60.728C241.478 60.264 241.354 59.728 241.354 59.12V58.976C241.354 58.36 241.478 57.824 241.726 57.368C241.974 56.904 242.318 56.548 242.758 56.3C243.206 56.044 243.722 55.916 244.306 55.916C244.874 55.916 245.37 56.044 245.794 56.3C246.226 56.548 246.562 56.896 246.802 57.344C247.042 57.792 247.162 58.316 247.162 58.916V59.384H242.614C242.63 59.904 242.802 60.32 243.13 60.632C243.466 60.936 243.882 61.088 244.378 61.088C244.842 61.088 245.19 60.984 245.422 60.776C245.662 60.568 245.846 60.328 245.974 60.056L246.994 60.584C246.882 60.808 246.718 61.044 246.502 61.292C246.294 61.54 246.018 61.748 245.674 61.916C245.33 62.084 244.89 62.168 244.354 62.168ZM242.626 58.436H245.902C245.87 57.988 245.71 57.64 245.422 57.392C245.134 57.136 244.758 57.008 244.294 57.008C243.83 57.008 243.45 57.136 243.154 57.392C242.866 57.64 242.69 57.988 242.626 58.436ZM31.624 77.072V76.892C31.624 76.268 31.748 75.736 31.996 75.296C32.252 74.856 32.588 74.516 33.004 74.276C33.42 74.036 33.876 73.916 34.372 73.916C34.948 73.916 35.388 74.024 35.692 74.24C36.004 74.456 36.232 74.688 36.376 74.936H36.568V74.084H37.768V81.212C37.768 81.572 37.66 81.86 37.444 82.076C37.236 82.292 36.948 82.4 36.58 82.4H32.596V81.32H36.196C36.428 81.32 36.544 81.2 36.544 80.96V79.076H36.352C36.264 79.22 36.14 79.368 35.98 79.52C35.82 79.672 35.608 79.796 35.344 79.892C35.088 79.988 34.764 80.036 34.372 80.036C33.876 80.036 33.416 79.92 32.992 79.688C32.576 79.448 32.244 79.108 31.996 78.668C31.748 78.22 31.624 77.688 31.624 77.072ZM34.708 78.956C35.244 78.956 35.684 78.788 36.028 78.452C36.38 78.108 36.556 77.636 36.556 77.036V76.928C36.556 76.312 36.384 75.84 36.04 75.512C35.696 75.176 35.252 75.008 34.708 75.008C34.18 75.008 33.74 75.176 33.388 75.512C33.044 75.84 32.872 76.312 32.872 76.928V77.036C32.872 77.636 33.044 78.108 33.388 78.452C33.74 78.788 34.18 78.956 34.708 78.956ZM41.4238 80.168C40.9998 80.168 40.6198 80.096 40.2838 79.952C39.9558 79.808 39.6918 79.596 39.4918 79.316C39.2998 79.036 39.2038 78.696 39.2038 78.296C39.2038 77.888 39.2998 77.552 39.4918 77.288C39.6918 77.016 39.9598 76.812 40.2958 76.676C40.6398 76.54 41.0278 76.472 41.4598 76.472H43.2598V76.088C43.2598 75.744 43.1558 75.468 42.9478 75.26C42.7398 75.052 42.4198 74.948 41.9878 74.948C41.5638 74.948 41.2398 75.048 41.0158 75.248C40.7918 75.448 40.6438 75.708 40.5718 76.028L39.4198 75.656C39.5158 75.336 39.6678 75.048 39.8758 74.792C40.0918 74.528 40.3758 74.316 40.7278 74.156C41.0798 73.996 41.5038 73.916 41.9998 73.916C42.7678 73.916 43.3718 74.112 43.8118 74.504C44.2518 74.896 44.4718 75.452 44.4718 76.172V78.608C44.4718 78.848 44.5838 78.968 44.8078 78.968H45.3118V80H44.3878C44.1078 80 43.8798 79.928 43.7038 79.784C43.5278 79.64 43.4398 79.444 43.4398 79.196V79.16H43.2598C43.1958 79.28 43.0998 79.42 42.9718 79.58C42.8438 79.74 42.6558 79.88 42.4078 80C42.1598 80.112 41.8318 80.168 41.4238 80.168ZM41.6038 79.148C42.0998 79.148 42.4998 79.008 42.8038 78.728C43.1078 78.44 43.2598 78.048 43.2598 77.552V77.432H41.5318C41.2038 77.432 40.9398 77.504 40.7398 77.648C40.5398 77.784 40.4398 77.988 40.4398 78.26C40.4398 78.532 40.5438 78.748 40.7518 78.908C40.9598 79.068 41.2438 79.148 41.6038 79.148ZM46.5136 80V74.084H47.7256V74.78H47.9176C48.0296 74.572 48.2096 74.388 48.4576 74.228C48.7056 74.068 49.0416 73.988 49.4656 73.988C49.9056 73.988 50.2576 74.08 50.5216 74.264C50.7936 74.44 50.9976 74.668 51.1336 74.948H51.3256C51.4616 74.676 51.6576 74.448 51.9136 74.264C52.1776 74.08 52.5496 73.988 53.0296 73.988C53.4136 73.988 53.7536 74.068 54.0496 74.228C54.3456 74.38 54.5816 74.612 54.7576 74.924C54.9336 75.228 55.0216 75.608 55.0216 76.064V80H53.7856V76.16C53.7856 75.8 53.6856 75.524 53.4856 75.332C53.2936 75.132 53.0176 75.032 52.6576 75.032C52.2736 75.032 51.9656 75.156 51.7336 75.404C51.5016 75.652 51.3856 76.008 51.3856 76.472V80H50.1496V76.16C50.1496 75.8 50.0496 75.524 49.8496 75.332C49.6576 75.132 49.3816 75.032 49.0216 75.032C48.6376 75.032 48.3296 75.156 48.0976 75.404C47.8656 75.652 47.7496 76.008 47.7496 76.472V80H46.5136ZM59.5146 80.168C58.9146 80.168 58.3906 80.044 57.9426 79.796C57.4946 79.54 57.1426 79.184 56.8866 78.728C56.6386 78.264 56.5146 77.728 56.5146 77.12V76.976C56.5146 76.36 56.6386 75.824 56.8866 75.368C57.1346 74.904 57.4786 74.548 57.9186 74.3C58.3666 74.044 58.8826 73.916 59.4666 73.916C60.0346 73.916 60.5306 74.044 60.9546 74.3C61.3866 74.548 61.7226 74.896 61.9626 75.344C62.2026 75.792 62.3226 76.316 62.3226 76.916V77.384H57.7746C57.7906 77.904 57.9626 78.32 58.2906 78.632C58.6266 78.936 59.0426 79.088 59.5386 79.088C60.0026 79.088 60.3506 78.984 60.5826 78.776C60.8226 78.568 61.0066 78.328 61.1346 78.056L62.1546 78.584C62.0426 78.808 61.8786 79.044 61.6626 79.292C61.4546 79.54 61.1786 79.748 60.8346 79.916C60.4906 80.084 60.0506 80.168 59.5146 80.168ZM57.7866 76.436H61.0626C61.0306 75.988 60.8706 75.64 60.5826 75.392C60.2946 75.136 59.9186 75.008 59.4546 75.008C58.9906 75.008 58.6106 75.136 58.3146 75.392C58.0266 75.64 57.8506 75.988 57.7866 76.436ZM64.4724 80.168C64.1924 80.168 63.9564 80.076 63.7644 79.892C63.5804 79.708 63.4884 79.472 63.4884 79.184C63.4884 78.896 63.5804 78.664 63.7644 78.488C63.9564 78.304 64.1924 78.212 64.4724 78.212C64.7524 78.212 64.9844 78.304 65.1684 78.488C65.3604 78.672 65.4564 78.904 65.4564 79.184C65.4564 79.472 65.3604 79.708 65.1684 79.892C64.9844 80.076 64.7524 80.168 64.4724 80.168Z" fill="white"/>
<path d="M263 32C263 24.268 269.268 18 277 18H341C348.732 18 355 24.268 355 32V70C355 77.732 348.732 84 341 84H277C269.268 84 263 77.732 263 70V32Z" fill="#F2F2F2"/>
<path d="M283.905 52.9203C283.682 53.1432 283.505 53.4078 283.384 53.6991C283.263 53.9904 283.201 54.3026 283.201 54.6179C283.201 54.9332 283.263 55.2454 283.384 55.5367C283.505 55.828 283.682 56.0926 283.905 56.3155L290.692 63.1027C291.142 63.5526 291.752 63.8054 292.389 63.8054C293.025 63.8054 293.635 63.5526 294.085 63.1027L297.625 59.5635C297.551 58.7014 297.65 57.8333 297.916 57.0099L296.791 58.1363L288.871 50.2163L299.053 40.0339C299.203 39.8839 299.407 39.7997 299.619 39.7997C299.831 39.7997 300.035 39.8839 300.185 40.0339L306.972 46.8227C307.122 46.9727 307.206 47.1762 307.206 47.3883C307.206 47.6004 307.122 47.8039 306.972 47.9539L302.012 52.9155C302.834 52.6469 303.702 52.5478 304.564 52.6243L308.103 49.0851C308.553 48.635 308.806 48.0247 308.806 47.3883C308.806 46.7519 308.553 46.1416 308.103 45.6915L301.316 38.9027C301.093 38.6797 300.828 38.5028 300.537 38.3821C300.246 38.2613 299.934 38.1992 299.618 38.1992C299.303 38.1992 298.991 38.2613 298.699 38.3821C298.408 38.5028 298.144 38.6797 297.921 38.9027L283.905 52.9203ZM285.034 55.1843C284.884 55.0343 284.8 54.8308 284.8 54.6187C284.8 54.4066 284.884 54.2031 285.034 54.0531L287.738 51.3491L295.658 59.2691L292.954 61.9731C292.804 62.1231 292.601 62.2073 292.389 62.2073C292.177 62.2073 291.973 62.1231 291.823 61.9731L285.034 55.1843ZM304.001 63.8003C305.274 63.8003 306.495 63.2946 307.395 62.3944C308.295 61.4942 308.801 60.2733 308.801 59.0003C308.801 57.7273 308.295 56.5064 307.395 55.6062C306.495 54.706 305.274 54.2003 304.001 54.2003C302.728 54.2003 301.507 54.706 300.607 55.6062C299.706 56.5064 299.201 57.7273 299.201 59.0003C299.201 60.2733 299.706 61.4942 300.607 62.3944C301.507 63.2946 302.728 63.8003 304.001 63.8003Z" fill="#1B1B1B"/>
<path d="M316.898 57L320.282 52.518L316.97 48.126H319.148L321.47 51.312H321.758L324.08 48.126H326.276L322.946 52.518L326.33 57H324.116L321.758 53.742H321.47L319.112 57H316.898ZM327.82 57V55.578C327.82 54.702 327.97 53.982 328.27 53.418C328.57 52.854 328.996 52.398 329.548 52.05C330.112 51.69 330.79 51.39 331.582 51.15L332.68 50.808C333.172 50.652 333.592 50.46 333.94 50.232C334.3 50.004 334.576 49.722 334.768 49.386C334.96 49.038 335.056 48.636 335.056 48.18V48.108C335.056 47.4 334.816 46.848 334.336 46.452C333.856 46.044 333.226 45.84 332.446 45.84C331.642 45.84 330.988 46.056 330.484 46.488C329.992 46.92 329.746 47.556 329.746 48.396V48.684H327.874V48.414C327.874 47.502 328.072 46.734 328.468 46.11C328.864 45.474 329.41 44.988 330.106 44.652C330.802 44.316 331.582 44.148 332.446 44.148C333.31 44.148 334.078 44.31 334.75 44.634C335.434 44.958 335.968 45.414 336.352 46.002C336.748 46.59 336.946 47.28 336.946 48.072V48.234C336.946 49.05 336.784 49.728 336.46 50.268C336.136 50.808 335.686 51.252 335.11 51.6C334.546 51.948 333.892 52.242 333.148 52.482L332.086 52.806C331.522 52.974 331.066 53.16 330.718 53.364C330.382 53.556 330.13 53.79 329.962 54.066C329.806 54.342 329.728 54.696 329.728 55.128V55.308H336.838V57H327.82Z" fill="#1B1B1B"/>
</svg>
